<svg width="2428" height="758" viewBox="0 0 2428 758" fill="none" xmlns="http://www.w3.org/2000/svg">
<path fill-rule="evenodd" clip-rule="evenodd" d="M0.756348 40.8263H295.819L328.165 42.1752L359.15 44.8729L388.799 51.6042L417.099 58.3485L442.688 69.1264L466.942 79.9043L489.846 93.3799L511.402 108.204L530.273 124.378L549.131 141.887L565.304 160.758L580.116 180.965L592.243 202.52L604.369 224.089L613.798 246.994L621.891 269.898L1040.88 0.412598L1193.12 102.809L867.072 312.984L919.612 348.015L1248.36 139.189L1389.81 233.492L1065.12 447.714L1120.36 481.396L1450.43 271.221V40.8263H1692.95V500.254H1908.52V715.812H1450.43V494.859L1042.22 757.587L625.899 476.001L617.806 500.254L609.726 523.159L597.599 546.064L585.472 568.981L570.648 589.188L554.475 609.408L536.965 628.266L516.758 644.426L496.552 660.599L472.298 674.075L448.045 686.202L421.093 696.98L392.793 705.06L363.158 710.442L332.173 714.489L298.49 715.838H0.756348V40.8263ZM232.5 252.35H295.819L324.119 255.048L347.023 263.128L367.23 275.255L384.739 291.428L396.879 310.286L406.308 330.506L411.69 353.411L413.039 376.315L411.69 399.22L406.308 422.137L396.879 442.344L383.403 461.215L367.23 477.376L347.023 489.515L322.77 497.596L295.819 500.293H232.5V252.35ZM1969.15 40.8263H2213.02V500.254H2427.26V715.812H1969.16L1969.15 40.8263Z" fill="#0382C7"/>
</svg>
