<svg width="517" height="92" viewBox="0 0 517 92" fill="none" xmlns="http://www.w3.org/2000/svg">
<path d="M0.568182 90V2.72727H53.2386V12.1023H11.1364V41.5909H50.5114V50.9659H11.1364V80.625H53.9205V90H0.568182ZM80.9801 2.72727V90H70.9233V2.72727H80.9801ZM99.3999 90V24.5455H109.457V90H99.3999ZM104.513 13.6364C102.553 13.6364 100.863 12.9687 99.4425 11.6335C98.0504 10.2983 97.3544 8.69318 97.3544 6.81818C97.3544 4.94318 98.0504 3.33807 99.4425 2.00284C100.863 0.667613 102.553 0 104.513 0C106.474 0 108.15 0.667613 109.542 2.00284C110.962 3.33807 111.673 4.94318 111.673 6.81818C111.673 8.69318 110.962 10.2983 109.542 11.6335C108.15 12.9687 106.474 13.6364 104.513 13.6364ZM156.342 24.5455V33.0682H122.422V24.5455H156.342ZM132.308 8.86364H142.365V71.25C142.365 74.0909 142.777 76.2216 143.601 77.642C144.453 79.0341 145.533 79.9716 146.839 80.4545C148.175 80.9091 149.581 81.1364 151.058 81.1364C152.166 81.1364 153.075 81.0795 153.786 80.9659C154.496 80.8239 155.064 80.7102 155.49 80.625L157.536 89.6591C156.854 89.9148 155.902 90.1705 154.68 90.4261C153.459 90.7102 151.911 90.8523 150.036 90.8523C147.195 90.8523 144.411 90.2415 141.683 89.0199C138.984 87.7983 136.74 85.9375 134.95 83.4375C133.189 80.9375 132.308 77.7841 132.308 73.9773V8.86364ZM198.21 91.3636C191.903 91.3636 186.463 89.9716 181.889 87.1875C177.344 84.375 173.835 80.4545 171.364 75.4261C168.92 70.3693 167.699 64.4886 167.699 57.7841C167.699 51.0795 168.92 45.1705 171.364 40.0568C173.835 34.9148 177.273 30.9091 181.676 28.0398C186.108 25.142 191.278 23.6932 197.188 23.6932C200.597 23.6932 203.963 24.2614 207.287 25.3977C210.611 26.5341 213.636 28.3807 216.364 30.9375C219.091 33.4659 221.264 36.8182 222.884 40.9943C224.503 45.1705 225.312 50.3125 225.312 56.4205V60.6818H174.858V51.9886H215.085C215.085 48.2955 214.347 45 212.869 42.1023C211.42 39.2045 209.347 36.9176 206.648 35.2415C203.977 33.5653 200.824 32.7273 197.188 32.7273C193.182 32.7273 189.716 33.7216 186.79 35.7102C183.892 37.6705 181.662 40.2273 180.099 43.3807C178.537 46.5341 177.756 49.9148 177.756 53.5227V59.3182C177.756 64.2614 178.608 68.4517 180.312 71.8892C182.045 75.2983 184.446 77.8977 187.514 79.6875C190.582 81.4489 194.148 82.3295 198.21 82.3295C200.852 82.3295 203.239 81.9602 205.369 81.2216C207.528 80.4545 209.389 79.3182 210.952 77.8125C212.514 76.2784 213.722 74.375 214.574 72.1023L224.29 74.8295C223.267 78.125 221.548 81.0227 219.134 83.5227C216.719 85.9943 213.736 87.9261 210.185 89.3182C206.634 90.6818 202.642 91.3636 198.21 91.3636ZM241.974 90V2.72727H272.486C278.565 2.72727 283.58 3.77841 287.528 5.88068C291.477 7.95454 294.418 10.7528 296.349 14.2756C298.281 17.7699 299.247 21.6477 299.247 25.9091C299.247 29.6591 298.58 32.7557 297.244 35.1989C295.938 37.642 294.205 39.5739 292.045 40.9943C289.915 42.4148 287.599 43.4659 285.099 44.1477V45C287.77 45.1705 290.455 46.108 293.153 47.8125C295.852 49.517 298.111 51.9602 299.929 55.142C301.747 58.3239 302.656 62.2159 302.656 66.8182C302.656 71.1932 301.662 75.1278 299.673 78.6222C297.685 82.1165 294.545 84.8864 290.256 86.9318C285.966 88.9773 280.384 90 273.509 90H241.974ZM252.543 80.625H273.509C280.412 80.625 285.313 79.2898 288.21 76.6193C291.136 73.9205 292.599 70.6534 292.599 66.8182C292.599 63.8636 291.847 61.1364 290.341 58.6364C288.835 56.108 286.69 54.0909 283.906 52.5852C281.122 51.0511 277.827 50.2841 274.02 50.2841H252.543V80.625ZM252.543 41.0795H272.145C275.327 41.0795 278.196 40.4545 280.753 39.2045C283.338 37.9545 285.384 36.1932 286.889 33.9205C288.423 31.6477 289.19 28.9773 289.19 25.9091C289.19 22.0739 287.855 18.821 285.185 16.1506C282.514 13.4517 278.281 12.1023 272.486 12.1023H252.543V41.0795ZM345.249 91.3636C339.339 91.3636 334.155 89.9574 329.695 87.1449C325.263 84.3324 321.797 80.3977 319.297 75.3409C316.825 70.2841 315.589 64.375 315.589 57.6136C315.589 50.7955 316.825 44.8437 319.297 39.7585C321.797 34.6733 325.263 30.7244 329.695 27.9119C334.155 25.0994 339.339 23.6932 345.249 23.6932C351.158 23.6932 356.328 25.0994 360.76 27.9119C365.22 30.7244 368.686 34.6733 371.158 39.7585C373.658 44.8437 374.908 50.7955 374.908 57.6136C374.908 64.375 373.658 70.2841 371.158 75.3409C368.686 80.3977 365.22 84.3324 360.76 87.1449C356.328 89.9574 351.158 91.3636 345.249 91.3636ZM345.249 82.3295C349.737 82.3295 353.43 81.179 356.328 78.8778C359.226 76.5767 361.371 73.5511 362.763 69.8011C364.155 66.0511 364.851 61.9886 364.851 57.6136C364.851 53.2386 364.155 49.1619 362.763 45.3835C361.371 41.6051 359.226 38.5511 356.328 36.2216C353.43 33.892 349.737 32.7273 345.249 32.7273C340.76 32.7273 337.067 33.892 334.169 36.2216C331.271 38.5511 329.126 41.6051 327.734 45.3835C326.342 49.1619 325.646 53.2386 325.646 57.6136C325.646 61.9886 326.342 66.0511 327.734 69.8011C329.126 73.5511 331.271 76.5767 334.169 78.8778C337.067 81.179 340.76 82.3295 345.249 82.3295ZM416.85 91.3636C410.941 91.3636 405.756 89.9574 401.296 87.1449C396.864 84.3324 393.398 80.3977 390.898 75.3409C388.427 70.2841 387.191 64.375 387.191 57.6136C387.191 50.7955 388.427 44.8437 390.898 39.7585C393.398 34.6733 396.864 30.7244 401.296 27.9119C405.756 25.0994 410.941 23.6932 416.85 23.6932C422.759 23.6932 427.93 25.0994 432.362 27.9119C436.822 30.7244 440.288 34.6733 442.759 39.7585C445.259 44.8437 446.509 50.7955 446.509 57.6136C446.509 64.375 445.259 70.2841 442.759 75.3409C440.288 80.3977 436.822 84.3324 432.362 87.1449C427.93 89.9574 422.759 91.3636 416.85 91.3636ZM416.85 82.3295C421.339 82.3295 425.032 81.179 427.93 78.8778C430.827 76.5767 432.972 73.5511 434.364 69.8011C435.756 66.0511 436.452 61.9886 436.452 57.6136C436.452 53.2386 435.756 49.1619 434.364 45.3835C432.972 41.6051 430.827 38.5511 427.93 36.2216C425.032 33.892 421.339 32.7273 416.85 32.7273C412.362 32.7273 408.668 33.892 405.771 36.2216C402.873 38.5511 400.728 41.6051 399.336 45.3835C397.944 49.1619 397.248 53.2386 397.248 57.6136C397.248 61.9886 397.944 66.0511 399.336 69.8011C400.728 73.5511 402.873 76.5767 405.771 78.8778C408.668 81.179 412.362 82.3295 416.85 82.3295ZM471.236 66.1364L471.065 53.6932H473.111L501.747 24.5455H514.19L483.679 55.3977H482.827L471.236 66.1364ZM461.861 90V2.72727H471.918V90H461.861ZM503.452 90L477.884 57.6136L485.043 50.625L516.236 90H503.452Z" fill="#0096D6"/>
</svg>
