<svg width="321" height="150" viewBox="0 0 321 150" fill="none" xmlns="http://www.w3.org/2000/svg">
<g clip-path="url(#clip0_102_28)">
<path d="M17.7531 88.7283H33.9827C37.0591 88.7283 39.9328 90.9751 40.0886 93.9531H40.2366V81.7163H17.7531L17.7421 60.2374H39.4347C42.5239 60.2374 45.4008 62.4765 45.5617 65.4461H45.7046L45.6827 53.2009L0.160263 53.2203V53.3541C3.22573 53.5215 5.52467 56.7671 5.52467 59.7998V116.067C5.52467 119.089 3.22573 122.349 0.160263 122.521V122.652H23.1284V122.521C20.0604 122.348 17.7415 119.089 17.7415 116.067L17.7531 88.7283ZM64.75 103.98C64.75 111.2 70.7709 117.443 78.2013 117.443C85.6239 117.443 91.6673 111.118 91.6673 103.895V59.7991C91.6673 56.7665 89.36 53.5202 86.2868 53.3535V53.2222L109.271 53.2003V53.3535C106.203 53.5208 103.879 56.7665 103.879 59.7991V102.647C103.879 116.439 92.4441 124.474 78.2618 124.474C64.0549 124.474 52.4972 116.439 52.4972 102.647L52.5274 59.7991C52.5274 56.7665 50.2092 53.5202 47.1572 53.3535V53.2003H70.1086V53.3535C67.049 53.5369 64.7391 56.7858 64.7391 59.7991L64.75 103.98ZM252.547 64.4466C248.696 58.2423 239.908 58.9888 239.908 58.9888C225.534 58.9888 226.213 69.9236 226.213 69.9236C226.213 69.9236 225.225 75.4077 232.447 79.149L246.819 86.7628C260.691 94.1854 259.047 104.733 259.047 104.733C259.047 104.733 259.673 124.439 230.66 124.439C230.66 124.439 222.231 124.697 217.457 122.912L213.374 110.149H213.516C217.936 116.505 230.778 117.422 230.778 117.422C247.081 116.708 247.193 105.661 247.193 105.661C247.193 105.661 247.927 100.905 241.544 97.4588L227.242 89.8475C212.309 81.8914 214.02 71.1767 214.02 71.1767C214.02 71.1767 213.667 51.7915 239.336 51.7915C239.336 51.7915 250.858 52.0869 252.695 53.8793V64.4466H252.547ZM140.556 29.0556C143.102 31.5464 146.655 33.0762 150.532 33.0762C158.346 33.0762 164.671 26.9292 164.671 19.3315C164.671 11.7563 158.346 5.59771 150.532 5.59771C150.532 5.59771 139.648 4.5937 134.749 18.135L134.765 7.97067C138.411 3.3316 144.054 -0.0402222 150.532 -0.0402222C161.557 -0.0402222 170.476 8.62457 170.476 19.3315C170.476 30.0217 161.556 38.7193 150.532 38.7193C145.026 38.7193 140.045 36.56 136.446 33.0376L129.587 25.5416C127.707 23.7157 125.12 22.6048 122.285 22.6048C116.573 22.6048 111.943 27.0933 111.943 32.6386C111.943 38.2051 116.573 42.7045 122.285 42.7045C122.285 42.7045 129.924 43.7008 134.749 34.4966L134.765 42.6356C131.809 46.1226 127.296 48.3476 122.285 48.3476C113.368 48.3476 106.126 41.3137 106.126 32.6379C106.126 23.9783 113.368 16.9611 122.285 16.9611C126.727 16.9611 130.762 18.6963 133.69 21.559L140.556 29.0556ZM144.231 59.6537C144.231 56.6178 141.922 53.5092 138.859 53.3528V53.2215H161.791V53.3528C158.748 53.5227 156.427 56.6346 156.427 59.6537V116.041C156.427 119.068 158.748 122.325 161.791 122.506V122.634H138.859V122.506C141.922 122.326 144.231 119.068 144.231 116.041V59.6537ZM129.831 59.7998C129.831 56.7678 132.135 53.5215 135.201 53.3548V53.2203H112.233V53.3548C115.306 53.5221 117.6 56.7678 117.6 59.7998L117.619 130.293C117.619 130.293 117.362 142.741 107.334 149.904L107.358 150.04C109.337 149.717 129.848 145.932 129.848 126.12L129.831 59.7998Z" fill="#E60012"/>
<path d="M161.706 65.7119H161.843C164.951 60.3011 169.747 60.2381 169.747 60.2381H182.181L182.189 116.068C182.189 119.09 179.876 122.324 176.814 122.505V122.634H199.811V122.505C196.724 122.325 194.403 119.068 194.403 116.068L194.42 60.2381L204.812 60.2136C207.967 60.2136 210.466 62.6606 210.556 65.7119H210.682L214.5 53.199H165.535L161.706 65.7119ZM276.158 103.98C276.158 111.2 282.179 117.443 289.612 117.443C297.027 117.443 303.075 111.118 303.075 103.895V59.7991C303.075 56.7665 300.765 53.5202 297.705 53.3535V53.2222L320.673 53.2003V53.3535C317.627 53.5208 315.305 56.7665 315.305 59.7991V102.647C315.305 116.439 303.866 124.474 289.662 124.474C275.482 124.474 263.921 116.439 263.921 102.647L263.938 59.7991C263.938 56.7665 261.625 53.5202 258.557 53.3535V53.2003H281.53V53.3535C278.454 53.5369 276.141 56.7858 276.141 59.7991L276.158 103.98Z" fill="#E60012"/>
</g>
<defs>
<clipPath id="clip0_102_28">
<rect width="320.833" height="150" fill="white"/>
</clipPath>
</defs>
</svg>
