<svg width="133" height="133" viewBox="0 0 133 133" fill="none" xmlns="http://www.w3.org/2000/svg">
<g clip-path="url(#clip0_103_36)">
<path d="M132.917 66.5C132.917 29.8176 103.182 0.0830078 66.5 0.0830078C65.4999 0.0830078 64.5049 0.108297 63.5146 0.153684L49.9293 37.4929H61.7619C68.8011 37.4929 72.5945 42.9129 70.185 49.5326L53.4275 95.5853L39.357 95.5828L57.3397 46.2215H46.7597L28.7769 95.5828H14.7016L35.8463 37.4929H35.8488L48.5678 2.53551C20.599 10.3597 0.0830383 36.033 0.0830383 66.5C0.0830383 97.871 21.8364 124.161 51.0809 131.114L63.4061 97.2423H63.4162L85.1595 37.4929H111.075C118.122 37.4929 121.913 42.9129 119.503 49.5326L104.779 89.981C103.657 93.0623 100.058 95.5828 96.78 95.5828H78.1004L64.5275 132.887C65.1817 132.904 65.8408 132.917 66.5 132.917C103.182 132.917 132.917 103.18 132.917 66.5Z" fill="#0096D6"/>
<path d="M106.688 46.1862H96.1133L81.3026 86.8213H91.8776L106.688 46.1862Z" fill="#0096D6"/>
</g>
<defs>
<clipPath id="clip0_103_36">
<rect width="133" height="133" fill="white"/>
</clipPath>
</defs>
</svg>
