<svg width="847" height="90" viewBox="0 0 847 90" fill="none" xmlns="http://www.w3.org/2000/svg">
<path d="M0.585227 88V0.72727H19.0369V72.7869H56.4517V88H0.585227ZM124.34 88H104.568L134.695 0.72727H158.474L188.559 88H168.786L146.926 20.6705H146.244L124.34 88ZM123.105 53.696H169.809V68.0994H123.105V53.696ZM223.475 15.9403V0.72727H295.152V15.9403H268.433V88H250.194V15.9403H223.475ZM363.807 0.72727V88H345.356V0.72727H363.807ZM414.064 15.9403V0.72727H485.741V15.9403H459.022V88H440.783V15.9403H414.064ZM589.851 0.72727H608.303V57.4034C608.303 63.767 606.783 69.3352 603.743 74.108C600.732 78.8807 596.513 82.6023 591.087 85.2727C585.661 87.9148 579.339 89.2358 572.124 89.2358C564.879 89.2358 558.544 87.9148 553.118 85.2727C547.692 82.6023 543.473 78.8807 540.462 74.108C537.45 69.3352 535.945 63.767 535.945 57.4034V0.72727H554.396V55.8267C554.396 59.1506 555.121 62.1051 556.57 64.6903C558.047 67.2756 560.121 69.3068 562.791 70.7841C565.462 72.2614 568.572 73 572.124 73C575.703 73 578.814 72.2614 581.456 70.7841C584.126 69.3068 586.186 67.2756 587.635 64.6903C589.112 62.1051 589.851 59.1506 589.851 55.8267V0.72727ZM692.821 88H661.884V0.72727H693.077C701.855 0.72727 709.412 2.47443 715.747 5.96875C722.083 9.43466 726.955 14.4205 730.364 20.9261C733.801 27.4318 735.52 35.2159 735.52 44.2784C735.52 53.3693 733.801 61.1818 730.364 67.7159C726.955 74.25 722.054 79.2642 715.662 82.7585C709.298 86.2528 701.685 88 692.821 88ZM680.335 72.1903H692.054C697.509 72.1903 702.097 71.2244 705.818 69.2926C709.568 67.3324 712.381 64.3068 714.256 60.2159C716.159 56.0966 717.111 50.7841 717.111 44.2784C717.111 37.8295 716.159 32.5597 714.256 28.4688C712.381 24.3778 709.583 21.3665 705.861 19.4347C702.139 17.5028 697.551 16.5369 692.097 16.5369H680.335V72.1903ZM787.588 88V0.72727H846.395V15.9403H806.04V36.7358H843.37V51.9489H806.04V72.7869H846.566V88H787.588Z" fill="black"/>
</svg>
