<svg width="835" height="120" viewBox="0 0 835 120" fill="none" xmlns="http://www.w3.org/2000/svg">
<path d="M209.967 23.3297C201.029 23.3297 190.864 27.4731 184.653 35.7685L184.657 35.7516L184.653 35.7558L184.657 24.6324H163.339V102.265H184.653V58.091C184.653 50.1403 190.818 41.6895 202.231 41.6895C211.052 41.6895 220.179 47.8248 220.179 58.091V102.265H241.497V54.1409C241.497 36.2853 228.722 23.3297 209.967 23.3297Z" fill="#E60012"/>
<path d="M393.01 24.6357L373.738 77.5172L354.466 24.6357H330.114L362.056 102.243H385.416L417.358 24.6357H393.01Z" fill="#E60012"/>
<path d="M99.6968 48.0226C103.328 43.148 109.11 40.2862 116.094 40.2862C123.776 40.2862 129.604 44.6734 132.618 51.1491L95.3726 66.6009C94.3557 58.6712 96.3854 52.4686 99.6968 48.0226ZM140.652 78.3967C131.68 85.0364 126.554 86.6206 118.372 86.6206C111.009 86.6206 105.244 84.3346 101.18 80.3256L155.68 57.7173C154.49 49.2917 151.292 41.7654 146.372 36.0419C139.211 27.7256 128.613 23.3258 115.708 23.3258C92.2672 23.3258 74.5923 40.6182 74.5923 63.4576C74.5923 86.8896 92.3092 103.585 118.057 103.585C132.483 103.585 147.233 96.7481 154.133 88.7596L140.652 78.3967Z" fill="#E60012"/>
<path d="M72.5605 82.6912H24.1082V1.41476H2.49998V102.265H72.5605V82.6912Z" fill="#E60012"/>
<path d="M455.637 41.5936C443.732 41.5936 435.088 50.6159 435.088 63.4497C435.088 75.7036 444.244 85.3058 455.923 85.3058C467.832 85.3058 476.472 76.0356 476.472 63.4497C476.472 51.1958 467.319 41.5936 455.637 41.5936ZM455.637 103.573C432.323 103.573 414.055 86.2051 414.055 63.4497C414.055 40.9507 432.449 23.3263 455.923 23.3263C479.237 23.3263 497.5 40.6943 497.5 63.4497C497.5 85.9445 479.111 103.573 455.637 103.573Z" fill="#E60012"/>
<path d="M291.508 41.5936C279.603 41.5936 270.963 50.6159 270.963 63.4497C270.963 75.7036 280.116 85.3058 291.798 85.3058C303.703 85.3058 312.343 76.0356 312.343 63.4497C312.343 51.1958 303.19 41.5936 291.508 41.5936ZM291.508 103.573C268.194 103.573 249.931 86.2051 249.931 63.4497C249.931 40.9507 268.32 23.3263 291.798 23.3263C315.108 23.3263 333.375 40.6943 333.375 63.4497C333.375 85.9445 314.982 103.573 291.508 103.573Z" fill="#E60012"/>
<path d="M573.432 64.5H570.023C569.668 62.6534 569.002 60.869 568.025 59.1467C567.049 57.4066 565.788 55.8441 564.243 54.4592C562.716 53.0565 560.941 51.9467 558.917 51.13C556.892 50.3132 554.655 49.9048 552.205 49.9048C548.618 49.9048 545.316 50.8636 542.297 52.7812C539.297 54.6811 536.891 57.4776 535.08 61.1708C533.286 64.864 532.39 69.3828 532.39 74.7273C532.39 80.1072 533.286 84.6438 535.08 88.337C536.891 92.0302 539.297 94.8267 542.297 96.7266C545.316 98.6087 548.618 99.5497 552.205 99.5497C554.655 99.5497 556.892 99.1502 558.917 98.3512C560.941 97.5344 562.716 96.4336 564.243 95.0487C565.788 93.646 567.049 92.0746 568.025 90.3345C569.002 88.5945 569.668 86.8011 570.023 84.9545H573.432C573.041 87.1562 572.287 89.3136 571.168 91.4265C570.067 93.5394 568.611 95.457 566.8 97.1793C565.007 98.8839 562.885 100.242 560.435 101.254C558.002 102.249 555.259 102.746 552.205 102.746C547.659 102.746 543.656 101.592 540.193 99.2834C536.731 96.9574 534.014 93.6903 532.043 89.4822C530.09 85.2741 529.114 80.3558 529.114 74.7273C529.114 69.0987 530.09 64.1804 532.043 59.9723C534.014 55.7642 536.731 52.506 540.193 50.1978C543.656 47.8718 547.659 46.7088 552.205 46.7088C555.259 46.7088 558.002 47.2148 560.435 48.2269C562.885 49.2212 565.007 50.5707 566.8 52.2752C568.611 53.962 570.067 55.8619 571.168 57.9748C572.287 60.0877 573.041 62.2628 573.432 64.5ZM584.125 102H580.61L600.292 47.4545H604.127L623.809 102H620.294L602.343 51.7425H602.076L584.125 102ZM589.106 81.4656H615.313V84.555H589.106V81.4656ZM633.983 102V47.4545H650.789C654.233 47.4545 657.199 48.1293 659.684 49.4787C662.17 50.8281 664.079 52.7013 665.411 55.0984C666.742 57.4776 667.408 60.2475 667.408 63.408C667.408 66.533 666.742 69.2852 665.411 71.6644C664.079 74.0259 662.17 75.8725 659.684 77.2042C657.216 78.5359 654.26 79.2017 650.816 79.2017H635.768V76.0856H650.736C653.541 76.0856 655.938 75.5618 657.927 74.5142C659.915 73.4666 661.442 72.0018 662.508 70.1197C663.573 68.2198 664.106 65.9826 664.106 63.408C664.106 60.8157 663.573 58.5607 662.508 56.6431C661.442 54.7077 659.906 53.2074 657.9 52.142C655.911 51.0767 653.514 50.544 650.709 50.544H637.312V102H633.983ZM656.382 77.2841L669.805 102H665.97L652.627 77.2841H656.382ZM680.712 102V47.4545H698.423C701.725 47.4545 704.513 48.0405 706.786 49.2124C709.059 50.3842 710.781 52.0266 711.953 54.1396C713.142 56.2525 713.737 58.7116 713.737 61.517C713.737 63.7187 713.382 65.6719 712.672 67.3764C711.962 69.081 710.967 70.4925 709.689 71.6112C708.428 72.712 706.946 73.4755 705.241 73.9016V74.2212C707.123 74.3633 708.872 75.0202 710.488 76.1921C712.104 77.3462 713.4 78.9176 714.376 80.9062C715.371 82.8949 715.868 85.212 715.868 87.8576C715.868 90.6452 715.264 93.1044 714.057 95.2351C712.867 97.348 711.083 99.0082 708.703 100.216C706.324 101.405 703.377 102 699.861 102H680.712ZM684.041 98.9105H699.861C703.963 98.9105 707.114 97.8807 709.316 95.821C711.536 93.7614 712.645 91.1069 712.645 87.8576C712.645 85.5671 712.104 83.5163 711.021 81.7053C709.955 79.8942 708.473 78.4648 706.573 77.4173C704.673 76.3519 702.471 75.8192 699.968 75.8192H684.041V98.9105ZM684.041 72.783H699.568C701.894 72.783 703.865 72.277 705.481 71.2649C707.114 70.2528 708.357 68.8945 709.21 67.19C710.08 65.4854 710.515 63.5945 710.515 61.517C710.515 58.1435 709.467 55.4712 707.372 53.5004C705.277 51.5295 702.294 50.544 698.423 50.544H684.041V72.783ZM772.364 74.7273C772.364 80.3558 771.388 85.2741 769.435 89.4822C767.481 93.6726 764.765 96.9308 761.285 99.2567C757.822 101.583 753.827 102.746 749.3 102.746C744.754 102.746 740.741 101.583 737.261 99.2567C733.799 96.913 731.091 93.646 729.138 89.4556C727.185 85.2475 726.208 80.3381 726.208 74.7273C726.208 69.0987 727.185 64.1893 729.138 59.9989C731.109 55.8086 733.826 52.5504 737.288 50.2244C740.75 47.8807 744.754 46.7088 749.3 46.7088C753.827 46.7088 757.822 47.8718 761.285 50.1978C764.765 52.5238 767.481 55.7908 769.435 59.9989C771.388 64.1893 772.364 69.0987 772.364 74.7273ZM769.115 74.7273C769.115 69.6669 768.263 65.2812 766.558 61.5703C764.871 57.8594 762.536 54.9918 759.554 52.9677C756.571 50.9258 753.153 49.9048 749.3 49.9048C745.447 49.9048 742.029 50.9169 739.046 52.9411C736.063 54.9474 733.719 57.815 732.014 61.5437C730.328 65.2546 729.484 69.6491 729.484 74.7273C729.484 79.7521 730.319 84.1289 731.988 87.8576C733.675 91.5685 736.009 94.445 738.992 96.4869C741.975 98.5288 745.411 99.5497 749.3 99.5497C753.153 99.5497 756.571 98.5376 759.554 96.5135C762.536 94.4716 764.871 91.5952 766.558 87.8842C768.263 84.1733 769.115 79.7876 769.115 74.7273ZM827.056 47.4545V102H823.807L789.024 53.5004H788.704V102H785.375V47.4545H788.651L823.434 96.0075H823.754V47.4545H827.056Z" fill="black"/>
</svg>
