<svg width="831" height="105" viewBox="0 0 831 105" fill="none" xmlns="http://www.w3.org/2000/svg">
<g clip-path="url(#clip0_101_26)">
<path d="M599.34 33.54C598.509 32.7107 597.384 32.245 596.21 32.245C595.036 32.245 593.911 32.7107 593.08 33.54L564.34 62.21L535.57 33.54C534.723 32.7894 533.621 32.3914 532.49 32.4278C531.358 32.4641 530.284 32.932 529.487 33.7355C528.69 34.539 528.23 35.6171 528.203 36.7486C528.176 37.88 528.583 38.979 529.34 39.82L559.95 70.31V100.31C559.95 101.485 560.417 102.612 561.248 103.442C562.078 104.273 563.205 104.74 564.38 104.74C565.555 104.74 566.682 104.273 567.512 103.442C568.343 102.612 568.81 101.485 568.81 100.31V70.28L599.34 39.82C599.753 39.4109 600.08 38.9241 600.304 38.3878C600.527 37.8514 600.643 37.2761 600.643 36.695C600.643 36.1139 600.527 35.5386 600.304 35.0022C600.08 34.4659 599.753 33.9791 599.34 33.57" fill="#231F20"/>
<path d="M826.25 103.4C825.421 103.405 824.608 103.178 823.901 102.745C823.194 102.312 822.622 101.69 822.25 100.95L794.34 45.29L766.4 100.95C765.87 102.002 764.943 102.799 763.824 103.168C762.706 103.536 761.487 103.445 760.435 102.915C759.383 102.385 758.586 101.458 758.217 100.339C757.849 99.2208 757.94 98.0016 758.47 96.95L790.34 33.45C790.707 32.7127 791.273 32.0925 791.973 31.659C792.674 31.2254 793.481 30.9958 794.305 30.9958C795.129 30.9958 795.936 31.2254 796.637 31.659C797.337 32.0925 797.903 32.7127 798.27 33.45L830.18 97C830.517 97.6778 830.674 98.4306 830.637 99.1865C830.6 99.9424 830.37 100.676 829.969 101.318C829.568 101.96 829.009 102.488 828.346 102.853C827.682 103.217 826.937 103.406 826.18 103.4" fill="#231F20"/>
<path d="M637.8 39.82C632.394 39.8437 627.116 41.4685 622.632 44.4892C618.149 47.51 614.661 51.7912 612.608 56.7927C610.556 61.7941 610.031 67.2915 611.1 72.5909C612.17 77.8903 614.785 82.7541 618.616 86.5685C622.447 90.3829 627.322 92.9768 632.626 94.0228C637.93 95.0688 643.425 94.52 648.418 92.4457C653.41 90.3714 657.676 86.8646 660.677 82.3679C663.678 77.8712 665.28 72.5862 665.28 67.18C665.256 59.9102 662.349 52.9468 657.198 47.8175C652.046 42.6882 645.07 39.812 637.8 39.82ZM637.8 103.38C630.649 103.35 623.667 101.203 617.736 97.2088C611.805 93.2147 607.189 87.5528 604.473 80.938C601.756 74.3232 601.061 67.0519 602.473 60.0419C603.885 53.0319 607.343 46.5975 612.409 41.5508C617.475 36.5041 623.923 33.0714 630.939 31.686C637.954 30.3006 645.223 31.0246 651.827 33.7665C658.431 36.5085 664.075 41.1455 668.046 47.0923C672.018 53.0391 674.138 60.0291 674.14 67.18C674.111 76.7961 670.268 86.008 663.456 92.7946C656.643 99.5811 647.416 103.388 637.8 103.38Z" fill="#231F20"/>
<path d="M721.68 103.64C715.711 103.626 709.837 102.141 704.578 99.3158C699.32 96.491 694.838 92.4135 691.531 87.4443C688.223 82.475 686.192 76.7671 685.615 70.8256C685.039 64.8841 685.937 58.8922 688.228 53.38C690.519 47.8679 694.133 43.0054 698.751 39.2228C703.369 35.4402 708.848 32.8541 714.703 31.6934C720.559 30.5326 726.61 30.833 732.322 32.5679C738.033 34.3027 743.229 37.4187 747.45 41.64C748.279 42.4714 748.743 43.5981 748.742 44.772C748.74 45.946 748.271 47.0712 747.44 47.9C746.609 48.7288 745.482 49.1934 744.308 49.1915C743.134 49.1896 742.009 48.7214 741.18 47.89C736.811 43.5423 731.107 40.7902 724.985 40.0762C718.863 39.3621 712.679 40.7276 707.427 43.9531C702.175 47.1786 698.16 52.0767 696.028 57.8597C693.897 63.6428 693.772 69.9747 695.673 75.8374C697.575 81.7001 701.393 86.7529 706.514 90.1833C711.635 93.6137 717.76 95.2223 723.905 94.7506C730.051 94.2788 735.859 91.7541 740.396 87.5824C744.933 83.4106 747.935 77.8343 748.92 71.75H721.68C720.51 71.75 719.389 71.2854 718.562 70.4584C717.735 69.6313 717.27 68.5096 717.27 67.34C717.27 66.1704 717.735 65.0487 718.562 64.2217C719.389 63.3946 720.51 62.93 721.68 62.93H753.68C754.261 62.9287 754.837 63.042 755.375 63.2636C755.912 63.4851 756.4 63.8105 756.812 64.2211C757.223 64.6316 757.55 65.1193 757.773 65.6562C757.995 66.1931 758.11 66.7687 758.11 67.35C758.078 76.9971 754.222 86.238 747.388 93.0465C740.553 99.855 731.297 103.675 721.65 103.67" fill="#231F20"/>
</g>
<path d="M209.967 23.3297C201.029 23.3297 190.864 27.4731 184.653 35.7685L184.657 35.7516L184.653 35.7558L184.657 24.6324H163.339V102.265H184.653V58.091C184.653 50.1403 190.818 41.6895 202.231 41.6895C211.052 41.6895 220.179 47.8248 220.179 58.091V102.265H241.497V54.1409C241.497 36.2853 228.722 23.3297 209.967 23.3297Z" fill="#E60012"/>
<path d="M393.01 24.6357L373.738 77.5172L354.466 24.6357H330.114L362.056 102.243H385.416L417.358 24.6357H393.01Z" fill="#E60012"/>
<path d="M99.6968 48.0226C103.328 43.148 109.11 40.2862 116.094 40.2862C123.776 40.2862 129.604 44.6734 132.618 51.1491L95.3726 66.6009C94.3557 58.6712 96.3854 52.4686 99.6968 48.0226ZM140.652 78.3967C131.68 85.0364 126.554 86.6206 118.372 86.6206C111.009 86.6206 105.244 84.3346 101.18 80.3256L155.68 57.7173C154.49 49.2917 151.292 41.7654 146.372 36.0419C139.211 27.7256 128.613 23.3258 115.708 23.3258C92.2672 23.3258 74.5923 40.6182 74.5923 63.4576C74.5923 86.8896 92.3092 103.585 118.057 103.585C132.483 103.585 147.233 96.7481 154.133 88.7596L140.652 78.3967Z" fill="#E60012"/>
<path d="M72.5605 82.6912H24.1082V1.41476H2.49998V102.265H72.5605V82.6912Z" fill="#E60012"/>
<path d="M455.637 41.5936C443.732 41.5936 435.088 50.6159 435.088 63.4497C435.088 75.7036 444.244 85.3058 455.923 85.3058C467.832 85.3058 476.472 76.0356 476.472 63.4497C476.472 51.1958 467.319 41.5936 455.637 41.5936ZM455.637 103.573C432.323 103.573 414.055 86.2051 414.055 63.4497C414.055 40.9507 432.449 23.3263 455.923 23.3263C479.237 23.3263 497.5 40.6943 497.5 63.4497C497.5 85.9445 479.111 103.573 455.637 103.573Z" fill="#E60012"/>
<path d="M291.508 41.5936C279.603 41.5936 270.963 50.6159 270.963 63.4497C270.963 75.7036 280.116 85.3058 291.798 85.3058C303.703 85.3058 312.343 76.0356 312.343 63.4497C312.343 51.1958 303.19 41.5936 291.508 41.5936ZM291.508 103.573C268.194 103.573 249.931 86.2051 249.931 63.4497C249.931 40.9507 268.32 23.3263 291.798 23.3263C315.108 23.3263 333.375 40.6943 333.375 63.4497C333.375 85.9445 314.982 103.573 291.508 103.573Z" fill="#E60012"/>
<defs>
<clipPath id="clip0_101_26">
<rect width="302.67" height="73.63" fill="white" transform="translate(528 31)"/>
</clipPath>
</defs>
</svg>
