<svg width="778" height="234" viewBox="0 0 778 234" fill="none" xmlns="http://www.w3.org/2000/svg">
<path fill-rule="evenodd" clip-rule="evenodd" d="M116.565 0L0 85.8586L21.9505 115.659L78.6693 73.8344L101.032 104.16L101.041 104.154L120.933 131.13L180.693 87.0629L116.565 0ZM203.067 117.439L115.951 181.68L96.0576 154.703L95.985 154.757L73.6223 124.431L44.3248 146.036L108.435 233.074L225 147.216L203.067 117.439Z" fill="#367CFE"/>
<path d="M283.17 161L297.659 73.7273H335.33C341.807 73.7273 347.261 75.0057 351.693 77.5625C356.125 80.1193 359.307 83.7131 361.239 88.3438C363.17 92.9744 363.625 98.3864 362.602 104.58C361.58 110.886 359.307 116.327 355.784 120.901C352.29 125.446 347.83 128.955 342.403 131.426C337.006 133.869 330.955 135.091 324.25 135.091H301.75L304.818 116.682H322.545C325.386 116.682 327.886 116.199 330.045 115.233C332.205 114.239 333.952 112.847 335.287 111.057C336.622 109.239 337.489 107.08 337.886 104.58C338.284 102.08 338.099 99.9489 337.332 98.1875C336.594 96.3977 335.315 95.0341 333.497 94.0966C331.707 93.1307 329.42 92.6477 326.636 92.6477H318.284L306.864 161H283.17ZM392.048 162.193C385.06 162.193 379.264 160.858 374.662 158.188C370.06 155.489 366.821 151.625 364.946 146.597C363.071 141.54 362.73 135.489 363.923 128.443C365.06 121.682 367.403 115.773 370.955 110.716C374.534 105.659 379.037 101.724 384.463 98.9119C389.918 96.0994 396.026 94.6932 402.787 94.6932C407.73 94.6932 412.063 95.4602 415.784 96.9943C419.534 98.5284 422.588 100.759 424.946 103.685C427.304 106.611 428.895 110.148 429.719 114.295C430.571 118.415 430.571 123.074 429.719 128.273L428.866 133.727H370.401L372.446 120.773H409.264C409.548 118.898 409.364 117.25 408.71 115.83C408.085 114.381 407.077 113.259 405.685 112.463C404.321 111.639 402.673 111.227 400.741 111.227C398.81 111.227 396.991 111.639 395.287 112.463C393.611 113.287 392.176 114.437 390.983 115.915C389.818 117.392 389.037 119.125 388.639 121.114L386.082 134.75C385.741 136.852 385.869 138.727 386.466 140.375C387.063 142.023 388.099 143.315 389.577 144.253C391.054 145.19 392.957 145.659 395.287 145.659C396.878 145.659 398.384 145.446 399.804 145.02C401.253 144.565 402.531 143.912 403.639 143.06C404.776 142.179 405.685 141.114 406.366 139.864H427.844C426.31 144.409 423.881 148.358 420.557 151.71C417.261 155.034 413.199 157.619 408.369 159.466C403.568 161.284 398.128 162.193 392.048 162.193ZM483.806 95.5455L480.908 112.591H437.783L440.681 95.5455H483.806ZM451.59 79.8636H475.113L465.141 139.949C464.999 140.858 465.028 141.625 465.227 142.25C465.425 142.847 465.823 143.301 466.42 143.614C467.045 143.898 467.869 144.04 468.891 144.04C469.573 144.04 470.411 143.955 471.406 143.784C472.4 143.585 473.153 143.443 473.664 143.358L474.346 159.892C473.153 160.233 471.548 160.616 469.531 161.043C467.542 161.497 465.227 161.795 462.585 161.938C457.073 162.193 452.585 161.611 449.119 160.19C445.681 158.77 443.295 156.554 441.96 153.543C440.653 150.503 440.425 146.71 441.278 142.165L451.59 79.8636ZM529.712 132.364L535.848 95.5455H559.371L548.462 161H526.132L528.178 148.557H527.496C525.479 152.733 522.467 156 518.462 158.358C514.484 160.687 510.053 161.852 505.166 161.852C500.592 161.852 496.771 160.801 493.703 158.699C490.635 156.597 488.462 153.699 487.183 150.006C485.905 146.312 485.649 142.08 486.416 137.307L493.405 95.5455H516.928L510.791 132.364C510.308 135.602 510.72 138.145 512.027 139.991C513.362 141.838 515.507 142.761 518.462 142.761C520.422 142.761 522.183 142.349 523.746 141.526C525.337 140.673 526.643 139.48 527.666 137.946C528.717 136.384 529.399 134.523 529.712 132.364ZM560.085 161L574.573 73.7273H598.266L587.016 141.909H622.3L619.062 161H560.085ZM647.048 162.023C642.901 162.023 639.335 161.341 636.352 159.977C633.398 158.585 631.239 156.483 629.875 153.67C628.54 150.83 628.241 147.25 628.98 142.932C629.577 139.352 630.699 136.298 632.347 133.77C633.994 131.241 636.04 129.168 638.483 127.548C640.926 125.929 643.668 124.693 646.707 123.841C649.776 122.96 653.014 122.392 656.423 122.136C660.116 121.852 663.114 121.497 665.415 121.071C667.716 120.645 669.435 120.062 670.571 119.324C671.707 118.585 672.389 117.591 672.616 116.341V116.17C672.872 114.466 672.418 113.159 671.253 112.25C670.116 111.341 668.526 110.886 666.48 110.886C664.264 110.886 662.347 111.369 660.727 112.335C659.136 113.301 658.043 114.807 657.446 116.852H635.798C636.707 112.875 638.568 109.21 641.381 105.858C644.222 102.477 647.986 99.7784 652.673 97.7614C657.389 95.7159 663.014 94.6932 669.548 94.6932C674.207 94.6932 678.298 95.2472 681.821 96.3551C685.344 97.4347 688.256 98.9545 690.557 100.915C692.886 102.847 694.52 105.119 695.457 107.733C696.423 110.318 696.651 113.131 696.139 116.17L688.639 161H666.651L668.185 151.795H667.673C665.969 154.239 664.051 156.213 661.92 157.719C659.818 159.224 657.517 160.318 655.017 161C652.545 161.682 649.889 162.023 647.048 162.023ZM657.276 147.193C659.037 147.193 660.77 146.824 662.474 146.085C664.179 145.347 665.642 144.281 666.864 142.889C668.085 141.497 668.866 139.807 669.207 137.818L670.06 132.364C669.435 132.619 668.739 132.861 667.972 133.088C667.233 133.287 666.452 133.486 665.628 133.685C664.832 133.884 663.98 134.068 663.071 134.239C662.19 134.409 661.281 134.58 660.344 134.75C658.469 135.034 656.892 135.503 655.614 136.156C654.335 136.781 653.341 137.562 652.631 138.5C651.92 139.409 651.48 140.432 651.31 141.568C651.054 143.358 651.466 144.75 652.545 145.744C653.653 146.71 655.23 147.193 657.276 147.193ZM695.958 185.545L711.043 95.5455H734.396L732.521 106.966H733.032C734.225 104.75 735.788 102.719 737.719 100.872C739.68 98.9972 741.981 97.5057 744.623 96.3977C747.293 95.2614 750.248 94.6932 753.487 94.6932C757.805 94.6932 761.711 95.8438 765.205 98.1449C768.7 100.446 771.271 104.068 772.918 109.011C774.566 113.955 774.737 120.375 773.43 128.273C772.18 135.83 769.95 142.094 766.739 147.065C763.558 152.037 759.808 155.744 755.489 158.188C751.2 160.631 746.725 161.852 742.066 161.852C738.998 161.852 736.342 161.355 734.097 160.361C731.853 159.338 730.049 157.96 728.685 156.227C727.322 154.466 726.384 152.477 725.873 150.261H725.362L719.566 185.545H695.958ZM728.6 128.273C728.089 131.455 728.046 134.21 728.472 136.54C728.927 138.841 729.822 140.631 731.157 141.909C732.521 143.159 734.282 143.784 736.441 143.784C738.6 143.784 740.532 143.173 742.237 141.952C743.941 140.702 745.39 138.926 746.583 136.625C747.776 134.295 748.657 131.511 749.225 128.273C749.737 125.034 749.779 122.264 749.353 119.963C748.927 117.634 748.06 115.858 746.754 114.636C745.447 113.386 743.714 112.761 741.555 112.761C739.396 112.761 737.421 113.386 735.631 114.636C733.87 115.858 732.379 117.634 731.157 119.963C729.964 122.264 729.112 125.034 728.6 128.273Z" fill="white"/>
</svg>
