<svg width="466" height="90" viewBox="0 0 466 90" fill="none" xmlns="http://www.w3.org/2000/svg">
<path d="M0.568182 88V0.72727H30.0568C36.9034 0.72727 42.5 1.96307 46.8466 4.43466C51.2216 6.87784 54.4602 10.1875 56.5625 14.3636C58.6648 18.5398 59.7159 23.1989 59.7159 28.3409C59.7159 33.483 58.6648 38.1562 56.5625 42.3608C54.4886 46.5653 51.2784 49.9176 46.9318 52.4176C42.5852 54.8892 37.017 56.125 30.2273 56.125H9.09091V46.75H29.8864C34.5739 46.75 38.3381 45.9403 41.179 44.321C44.0199 42.7017 46.0795 40.5142 47.358 37.7585C48.6648 34.9744 49.3182 31.8352 49.3182 28.3409C49.3182 24.8466 48.6648 21.7216 47.358 18.9659C46.0795 16.2102 44.0057 14.0511 41.1364 12.4886C38.267 10.8977 34.4602 10.1023 29.7159 10.1023H11.1364V88H0.568182ZM75.3764 88V22.5455H85.0923V32.4318H85.7741C86.9673 29.1932 89.1264 26.5653 92.2514 24.5483C95.3764 22.5312 98.8991 21.5227 102.82 21.5227C103.558 21.5227 104.482 21.5369 105.589 21.5653C106.697 21.5937 107.536 21.6364 108.104 21.6932V31.9205C107.763 31.8352 106.982 31.7074 105.76 31.5369C104.567 31.3381 103.303 31.2386 101.967 31.2386C98.7855 31.2386 95.9446 31.9062 93.4446 33.2415C90.973 34.5483 89.0128 36.3665 87.5639 38.696C86.1435 40.9972 85.4332 43.625 85.4332 46.5795V88H75.3764ZM144.624 89.3636C138.714 89.3636 133.53 87.9574 129.07 85.1449C124.638 82.3324 121.172 78.3977 118.672 73.3409C116.2 68.2841 114.964 62.375 114.964 55.6136C114.964 48.7955 116.2 42.8437 118.672 37.7585C121.172 32.6733 124.638 28.7244 129.07 25.9119C133.53 23.0994 138.714 21.6932 144.624 21.6932C150.533 21.6932 155.703 23.0994 160.135 25.9119C164.595 28.7244 168.061 32.6733 170.533 37.7585C173.033 42.8437 174.283 48.7955 174.283 55.6136C174.283 62.375 173.033 68.2841 170.533 73.3409C168.061 78.3977 164.595 82.3324 160.135 85.1449C155.703 87.9574 150.533 89.3636 144.624 89.3636ZM144.624 80.3295C149.112 80.3295 152.805 79.179 155.703 76.8778C158.601 74.5767 160.746 71.5511 162.138 67.8011C163.53 64.0511 164.226 59.9886 164.226 55.6136C164.226 51.2386 163.53 47.1619 162.138 43.3835C160.746 39.6051 158.601 36.5511 155.703 34.2216C152.805 31.892 149.112 30.7273 144.624 30.7273C140.135 30.7273 136.442 31.892 133.544 34.2216C130.646 36.5511 128.501 39.6051 127.109 43.3835C125.717 47.1619 125.021 51.2386 125.021 55.6136C125.021 59.9886 125.717 64.0511 127.109 67.8011C128.501 71.5511 130.646 74.5767 133.544 76.8778C136.442 79.179 140.135 80.3295 144.624 80.3295ZM190.998 88V0.72727H221.509C227.589 0.72727 232.603 1.77841 236.552 3.88068C240.501 5.95454 243.441 8.75284 245.373 12.2756C247.305 15.7699 248.271 19.6477 248.271 23.9091C248.271 27.6591 247.603 30.7557 246.268 33.1989C244.961 35.642 243.228 37.5739 241.069 38.9943C238.938 40.4148 236.623 41.4659 234.123 42.1477V43C236.793 43.1705 239.478 44.108 242.177 45.8125C244.876 47.517 247.134 49.9602 248.952 53.142C250.771 56.3239 251.68 60.2159 251.68 64.8182C251.68 69.1932 250.685 73.1278 248.697 76.6222C246.708 80.1165 243.569 82.8864 239.279 84.9318C234.989 86.9773 229.407 88 222.532 88H190.998ZM201.566 78.625H222.532C229.435 78.625 234.336 77.2898 237.234 74.6193C240.16 71.9205 241.623 68.6534 241.623 64.8182C241.623 61.8636 240.87 59.1364 239.364 56.6364C237.859 54.108 235.714 52.0909 232.93 50.5852C230.146 49.0511 226.85 48.2841 223.043 48.2841H201.566V78.625ZM201.566 39.0795H221.168C224.35 39.0795 227.219 38.4545 229.776 37.2045C232.362 35.9545 234.407 34.1932 235.913 31.9205C237.447 29.6477 238.214 26.9773 238.214 23.9091C238.214 20.0739 236.879 16.821 234.208 14.1506C231.538 11.4517 227.305 10.1023 221.509 10.1023H201.566V39.0795ZM294.272 89.3636C288.363 89.3636 283.178 87.9574 278.718 85.1449C274.286 82.3324 270.82 78.3977 268.32 73.3409C265.849 68.2841 264.613 62.375 264.613 55.6136C264.613 48.7955 265.849 42.8437 268.32 37.7585C270.82 32.6733 274.286 28.7244 278.718 25.9119C283.178 23.0994 288.363 21.6932 294.272 21.6932C300.181 21.6932 305.352 23.0994 309.783 25.9119C314.244 28.7244 317.71 32.6733 320.181 37.7585C322.681 42.8437 323.931 48.7955 323.931 55.6136C323.931 62.375 322.681 68.2841 320.181 73.3409C317.71 78.3977 314.244 82.3324 309.783 85.1449C305.352 87.9574 300.181 89.3636 294.272 89.3636ZM294.272 80.3295C298.761 80.3295 302.454 79.179 305.352 76.8778C308.249 74.5767 310.394 71.5511 311.786 67.8011C313.178 64.0511 313.874 59.9886 313.874 55.6136C313.874 51.2386 313.178 47.1619 311.786 43.3835C310.394 39.6051 308.249 36.5511 305.352 34.2216C302.454 31.892 298.761 30.7273 294.272 30.7273C289.783 30.7273 286.09 31.892 283.192 34.2216C280.295 36.5511 278.15 39.6051 276.758 43.3835C275.366 47.1619 274.67 51.2386 274.67 55.6136C274.67 59.9886 275.366 64.0511 276.758 67.8011C278.15 71.5511 280.295 74.5767 283.192 76.8778C286.09 79.179 289.783 80.3295 294.272 80.3295ZM365.874 89.3636C359.964 89.3636 354.78 87.9574 350.32 85.1449C345.888 82.3324 342.422 78.3977 339.922 73.3409C337.45 68.2841 336.214 62.375 336.214 55.6136C336.214 48.7955 337.45 42.8437 339.922 37.7585C342.422 32.6733 345.888 28.7244 350.32 25.9119C354.78 23.0994 359.964 21.6932 365.874 21.6932C371.783 21.6932 376.953 23.0994 381.385 25.9119C385.845 28.7244 389.311 32.6733 391.783 37.7585C394.283 42.8437 395.533 48.7955 395.533 55.6136C395.533 62.375 394.283 68.2841 391.783 73.3409C389.311 78.3977 385.845 82.3324 381.385 85.1449C376.953 87.9574 371.783 89.3636 365.874 89.3636ZM365.874 80.3295C370.362 80.3295 374.055 79.179 376.953 76.8778C379.851 74.5767 381.996 71.5511 383.388 67.8011C384.78 64.0511 385.476 59.9886 385.476 55.6136C385.476 51.2386 384.78 47.1619 383.388 43.3835C381.996 39.6051 379.851 36.5511 376.953 34.2216C374.055 31.892 370.362 30.7273 365.874 30.7273C361.385 30.7273 357.692 31.892 354.794 34.2216C351.896 36.5511 349.751 39.6051 348.359 43.3835C346.967 47.1619 346.271 51.2386 346.271 55.6136C346.271 59.9886 346.967 64.0511 348.359 67.8011C349.751 71.5511 351.896 74.5767 354.794 76.8778C357.692 79.179 361.385 80.3295 365.874 80.3295ZM420.259 64.1364L420.089 51.6932H422.134L450.771 22.5455H463.214L432.702 53.3977H431.85L420.259 64.1364ZM410.884 88V0.72727H420.941V88H410.884ZM452.475 88L426.907 55.6136L434.066 48.625L465.259 88H452.475Z" fill="#0096D6"/>
</svg>
