<svg width="447" height="122" viewBox="0 0 447 122" fill="none" xmlns="http://www.w3.org/2000/svg">
<path d="M359.716 28.5455L377.837 56.9581H378.253L396.374 28.5455H403.438L382.376 61.2727L403.438 94H396.374L378.253 65.907H377.837L359.716 94H352.653L374.034 61.2727L352.653 28.5455H359.716Z" fill="#E32726"/>
<path d="M433.56 28.5455V94H427.583V34.8097H427.2L411.859 45.005V38.8047L427.328 28.5455H433.56Z" fill="black"/>
<path d="M46.7426 5.86539V20.0455H32.6592V114.455H16.5338V20.0502H2.34722V5.86539H46.7426ZM66.2715 32.2549H66.5766C68.7126 28.1398 72.6794 26.1549 76.6462 26.1549C87.7861 26.1549 87.9363 32.7101 87.9363 41.8648V114.455H73.2897V43.9951C73.2897 41.5551 73.1394 38.6552 70.0834 38.6552C66.4217 38.6552 66.2668 41.5551 66.2668 43.9951V114.455H51.6201V5.86539H66.2668V32.2502L66.2715 32.2549ZM94.9545 114.455V27.2154H109.601V114.492H94.9545V114.455ZM116.61 27.2154H131.257V32.2502H131.562C133.698 28.1351 137.665 26.1502 141.636 26.1502C152.776 26.1502 152.926 32.7054 152.926 41.8601V114.45H138.28V43.9951C138.28 41.5551 138.129 38.6552 135.073 38.6552C131.412 38.6552 131.257 41.5551 131.257 43.9951V114.455H116.61V27.2154ZM159.339 114.455V5.86539H173.986V67.3346H174.596L182.576 27.2248H197.223L188.829 66.5745L197.636 114.455H182.68L174.633 68.5077H174.023V114.413H159.376L159.339 114.455ZM202.669 114.455V5.86539H219.601C237.454 5.86539 245.388 12.5754 244.933 27.0652V50.5502C245.083 68.2402 236.079 73.7302 218.841 72.8152V114.45L202.669 114.455ZM218.841 59.8551C223.568 59.8551 228.3 60.0099 228.756 54.9751V29.2049C228.756 19.1352 225.249 18.3751 218.841 18.8818V59.902V59.8551ZM288.568 114.455H274.832C273.921 112.578 273.921 110.49 273.921 108.505H273.616C270.564 113.535 268.273 115.52 262.171 115.52C255.763 115.52 252.256 112.01 252.256 105.45V76.1702C252.256 58.4802 273.465 67.7851 273.465 45.5201C273.465 42.9252 274.076 36.8252 270.564 36.8252C266.339 36.8252 267.058 43.8402 267.058 46.8902V58.3301H252.261V40.7902C252.261 31.7951 259.279 26.1502 270.414 26.1502C281.549 26.1502 288.572 31.7951 288.572 40.7902V114.459L288.568 114.455ZM273.921 69.3148C269.799 71.7548 266.903 73.5378 266.903 78.1598V100.12C267.203 101.997 268.424 103.17 270.409 103.015C272.395 102.71 273.921 101.49 273.921 99.5051V69.3054V69.3148ZM330.982 114.455H316.335V109.27H316.03C313.744 112.475 309.927 115.525 305.505 115.525C299.858 115.525 294.67 112.475 294.67 105.305V36.3654C294.67 29.2002 299.853 26.1455 305.505 26.1455C310.232 26.1455 313.894 29.3504 316.03 32.7007H316.335V5.86539H330.982V114.455ZM309.364 97.6751C309.364 102.25 311.04 103.015 312.871 103.015C314.702 103.015 316.382 102.25 316.382 97.6751V43.9951C316.382 39.4201 314.702 38.6552 312.871 38.6552C311.04 38.6552 309.364 39.4154 309.364 43.9951V97.6751Z" fill="black"/>
<path d="M102.104 21.1154C107.29 21.1154 111.493 16.9138 111.493 11.7308C111.493 6.5478 107.29 2.34616 102.104 2.34616C96.9188 2.34616 92.7153 6.5478 92.7153 11.7308C92.7153 16.9138 96.9188 21.1154 102.104 21.1154Z" fill="#E32726"/>
</svg>
