<svg width="387" height="90" viewBox="0 0 387 90" fill="none" xmlns="http://www.w3.org/2000/svg">
<path d="M0.670454 88V80.3295L47.7159 10.1023H0.159091V0.72727H60.3295V8.39772L13.2841 78.625H60.8409V88H0.670454ZM112.318 88V0.72727H142.83C148.909 0.72727 153.923 1.77841 157.872 3.88068C161.821 5.95454 164.761 8.75284 166.693 12.2756C168.625 15.7699 169.591 19.6477 169.591 23.9091C169.591 27.6591 168.923 30.7557 167.588 33.1989C166.281 35.642 164.548 37.5739 162.389 38.9943C160.259 40.4148 157.943 41.4659 155.443 42.1477V43C158.114 43.1705 160.798 44.108 163.497 45.8125C166.196 47.517 168.455 49.9602 170.273 53.142C172.091 56.3239 173 60.2159 173 64.8182C173 69.1932 172.006 73.1278 170.017 76.6222C168.028 80.1165 164.889 82.8864 160.599 84.9318C156.31 86.9773 150.727 88 143.852 88H112.318ZM122.886 78.625H143.852C150.756 78.625 155.656 77.2898 158.554 74.6193C161.48 71.9205 162.943 68.6534 162.943 64.8182C162.943 61.8636 162.19 59.1364 160.685 56.6364C159.179 54.108 157.034 52.0909 154.25 50.5852C151.466 49.0511 148.17 48.2841 144.364 48.2841H122.886V78.625ZM122.886 39.0795H142.489C145.67 39.0795 148.54 38.4545 151.097 37.2045C153.682 35.9545 155.727 34.1932 157.233 31.9205C158.767 29.6477 159.534 26.9773 159.534 23.9091C159.534 20.0739 158.199 16.821 155.528 14.1506C152.858 11.4517 148.625 10.1023 142.83 10.1023H122.886V39.0795ZM215.592 89.3636C209.683 89.3636 204.499 87.9574 200.038 85.1449C195.607 82.3324 192.141 78.3977 189.641 73.3409C187.169 68.2841 185.933 62.375 185.933 55.6136C185.933 48.7955 187.169 42.8437 189.641 37.7585C192.141 32.6733 195.607 28.7244 200.038 25.9119C204.499 23.0994 209.683 21.6932 215.592 21.6932C221.501 21.6932 226.672 23.0994 231.104 25.9119C235.564 28.7244 239.03 32.6733 241.501 37.7585C244.001 42.8437 245.251 48.7955 245.251 55.6136C245.251 62.375 244.001 68.2841 241.501 73.3409C239.03 78.3977 235.564 82.3324 231.104 85.1449C226.672 87.9574 221.501 89.3636 215.592 89.3636ZM215.592 80.3295C220.081 80.3295 223.774 79.179 226.672 76.8778C229.57 74.5767 231.714 71.5511 233.107 67.8011C234.499 64.0511 235.195 59.9886 235.195 55.6136C235.195 51.2386 234.499 47.1619 233.107 43.3835C231.714 39.6051 229.57 36.5511 226.672 34.2216C223.774 31.892 220.081 30.7273 215.592 30.7273C211.104 30.7273 207.411 31.892 204.513 34.2216C201.615 36.5511 199.47 39.6051 198.078 43.3835C196.686 47.1619 195.99 51.2386 195.99 55.6136C195.99 59.9886 196.686 64.0511 198.078 67.8011C199.47 71.5511 201.615 74.5767 204.513 76.8778C207.411 79.179 211.104 80.3295 215.592 80.3295ZM287.194 89.3636C281.285 89.3636 276.1 87.9574 271.64 85.1449C267.208 82.3324 263.742 78.3977 261.242 73.3409C258.771 68.2841 257.535 62.375 257.535 55.6136C257.535 48.7955 258.771 42.8437 261.242 37.7585C263.742 32.6733 267.208 28.7244 271.64 25.9119C276.1 23.0994 281.285 21.6932 287.194 21.6932C293.103 21.6932 298.273 23.0994 302.705 25.9119C307.165 28.7244 310.631 32.6733 313.103 37.7585C315.603 42.8437 316.853 48.7955 316.853 55.6136C316.853 62.375 315.603 68.2841 313.103 73.3409C310.631 78.3977 307.165 82.3324 302.705 85.1449C298.273 87.9574 293.103 89.3636 287.194 89.3636ZM287.194 80.3295C291.683 80.3295 295.376 79.179 298.273 76.8778C301.171 74.5767 303.316 71.5511 304.708 67.8011C306.1 64.0511 306.796 59.9886 306.796 55.6136C306.796 51.2386 306.1 47.1619 304.708 43.3835C303.316 39.6051 301.171 36.5511 298.273 34.2216C295.376 31.892 291.683 30.7273 287.194 30.7273C282.705 30.7273 279.012 31.892 276.114 34.2216C273.217 36.5511 271.072 39.6051 269.68 43.3835C268.288 47.1619 267.592 51.2386 267.592 55.6136C267.592 59.9886 268.288 64.0511 269.68 67.8011C271.072 71.5511 273.217 74.5767 276.114 76.8778C279.012 79.179 282.705 80.3295 287.194 80.3295ZM341.58 64.1364L341.409 51.6932H343.455L372.091 22.5455H384.534L354.023 53.3977H353.17L341.58 64.1364ZM332.205 88V0.72727H342.261V88H332.205ZM373.795 88L348.227 55.6136L355.386 48.625L386.58 88H373.795Z" fill="#0096D6"/>
</svg>
