<svg width="250" height="250" viewBox="0 0 250 250" fill="none" xmlns="http://www.w3.org/2000/svg">
<path d="M41.6667 208.333C35.9376 208.333 31.0313 206.292 26.948 202.208C22.8646 198.125 20.8264 193.222 20.8334 187.5V62.5001C20.8334 56.7709 22.8751 51.8647 26.9584 47.7813C31.0417 43.698 35.9445 41.6598 41.6667 41.6668H208.333C214.063 41.6668 218.969 43.7084 223.052 47.7918C227.136 51.8751 229.174 56.7779 229.167 62.5001V187.5C229.167 193.229 227.125 198.136 223.042 202.219C218.958 206.302 214.056 208.34 208.333 208.333H41.6667ZM41.6667 125H208.333V83.3334H41.6667V125Z" fill="white"/>
</svg>
