<svg width="250" height="250" viewBox="0 0 250 250" fill="none" xmlns="http://www.w3.org/2000/svg">
<path d="M31.25 62.5V187.5H138.75C136.537 180.777 135.411 173.744 135.417 166.667H72.9167C72.9167 161.141 70.7217 155.842 66.8147 151.935C62.9077 148.028 57.6087 145.833 52.0833 145.833V104.167C63.6458 104.167 72.9167 94.8958 72.9167 83.3333H177.083C177.083 88.8587 179.278 94.1577 183.185 98.0647C187.092 101.972 192.391 104.167 197.917 104.167V104.792C204.896 104.792 211.875 106.042 218.75 108.333V62.5H31.25ZM125 93.75C107.292 94.0625 93.75 107.292 93.75 125C93.75 142.708 107.292 155.625 125 156.25C128.958 156.25 133.021 155.417 136.875 153.854C139.687 142.396 144.375 131.562 155.937 120.937C154.687 107.083 141.562 93.4375 125 93.75ZM225.312 127.813L185 168.438L170.937 154.167L156.25 168.958L184.896 197.917L239.896 142.5L225.312 127.813Z" fill="white"/>
</svg>
