<svg width="2332" height="400" viewBox="0 0 2332 400" fill="none" xmlns="http://www.w3.org/2000/svg">
<g clip-path="url(#clip0_111_177)">
<path d="M310.075 0H89.925C40.2608 0 0 40.2608 0 89.925V310.075C0 359.739 40.2608 400 89.925 400H310.075C359.739 400 400 359.739 400 310.075V89.925C400 40.2608 359.739 0 310.075 0Z" fill="url(#paint0_linear_111_177)"/>
<path d="M134.896 249.779C133.133 251.446 131.467 253.059 129.75 254.629C127.392 256.784 124.808 258.6 121.771 259.7C114.421 262.363 107.846 258.942 105.738 251.429C104.796 248.096 104.904 244.763 105.479 241.429C106.071 237.909 106.6 234.346 107.479 230.9C108.383 227.35 109.617 223.884 110.813 220.413C112.343 215.968 113.931 211.534 115.575 207.109C116.621 204.321 116.579 201.454 116.438 198.584C116.288 195.6 117.708 193.917 120.654 194.075C123.054 194.204 125.429 194.529 127.254 196.417C129.383 198.621 130.079 201.259 129.313 204.125C127.863 209.542 126.158 214.917 124.65 220.334C123.421 224.75 122.233 229.188 121.208 233.667C120.892 235.257 120.832 236.887 121.033 238.496C121.35 241.629 123.913 243.2 126.771 241.879C128.451 241.061 129.975 239.956 131.275 238.613C135.363 234.471 137.696 229.279 139.65 223.896C140.338 222.004 141.046 220.121 141.733 218.229C143.258 213.959 144.817 209.704 146.275 205.413C147.525 201.763 148.579 198.059 149.808 194.409C151.788 188.509 158.042 183.517 164.392 183.859C167.688 184.038 168.421 185.409 167.825 188.188C166.721 193.334 165.325 198.421 163.921 203.488C157.621 226.032 151.292 248.57 144.933 271.1C144.796 271.592 144.692 272.092 144.583 272.534L210.833 261.767C211.721 257.088 212.646 252.217 213.658 246.896C212.779 247.442 212.263 247.771 211.738 248.088C209.404 249.496 207 250.746 204.275 251.229C199.463 252.088 195.892 249.909 194.442 245.217C194.242 244.571 194.083 243.913 193.846 243.038C192.954 244.613 192.238 246.046 191.371 247.384C188.908 251.192 185.771 254.142 181.154 255.163C174.388 256.663 167.779 253.134 165.4 246.621C164.138 243.001 163.457 239.204 163.383 235.371C163.008 224.613 165.75 214.492 169.729 204.617C171.546 199.93 173.989 195.511 176.992 191.479C179.243 188.405 181.942 185.686 185 183.413C190.05 179.796 197.442 179.209 203.333 184.663C203.704 183.579 204.071 182.579 204.383 181.554C205.217 178.863 207.396 178.117 210.154 178.492C211.243 178.651 212.314 178.918 213.35 179.288C214.297 179.559 215.127 180.138 215.707 180.935C216.286 181.731 216.583 182.699 216.55 183.684C216.524 185.104 216.345 186.518 216.017 187.9C213.713 198.588 211.279 209.246 209.092 219.954C208.396 223.359 208.296 226.888 207.979 230.371C207.939 231.084 208.014 231.799 208.2 232.488C208.617 234.2 209.388 234.638 211.025 233.967C212.211 233.462 213.349 232.851 214.425 232.142C216.133 231.034 217.004 229.446 217.392 227.379C220.329 211.804 223.367 196.246 226.375 180.679C226.408 180.492 226.471 180.304 226.513 180.117C227.438 175.813 229.054 175.784 232.663 176.263C233.986 176.478 235.285 176.821 236.542 177.288C238.15 177.838 238.563 178.588 238.383 180.325C238.212 181.384 238.212 182.463 238.383 183.521C239.292 182.421 240.179 181.304 241.117 180.229C242.296 178.875 243.354 177.346 244.75 176.263C248.567 173.3 252.954 172.513 257.625 173.646C260.833 174.4 262.8 176.667 264.075 179.584C266.071 184.167 266.642 189.054 266.767 193.996C266.996 203.163 264.963 211.938 262.35 220.613C260.854 225.575 259.017 230.434 256.271 234.854C254.813 237.297 253.132 239.6 251.25 241.734C243.308 250.379 233.083 247.4 227.5 242.254C227.083 241.867 226.704 241.421 225.946 240.642C224.95 247.334 224.021 253.604 223.029 260.184C224.908 259.967 226.483 259.792 228.058 259.6C240.654 258.059 253.242 256.471 265.842 254.984C271.567 254.313 277.304 253.734 283.05 253.317C286.085 253.146 289.128 253.205 292.154 253.492C297.042 253.909 299.208 258.563 298.154 262.659C297.961 263.555 297.508 264.375 296.85 265.014C296.192 265.653 295.36 266.083 294.458 266.25C290.971 266.942 287.492 267.725 283.971 268.175C268.363 270.163 252.746 272.034 237.133 273.975C232.133 274.6 227.133 275.35 222.133 275.95C221.05 276.079 220.604 276.442 220.333 277.509C219.843 279.449 219.23 281.357 218.5 283.221C217.781 285.065 216.417 286.585 214.663 287.5C211.629 289.167 208.229 287.621 207.725 284.192C207.442 282.242 207.675 280.213 207.675 278.013C204.758 278.429 201.95 278.738 199.179 279.229C180.508 282.521 161.883 286.042 143.429 290.404C141.858 290.775 139.925 290.821 138.846 291.788C137.767 292.754 137.563 294.659 137.063 296.188C134.221 304.859 131.071 313.409 126.879 321.538C122.367 330.288 116.933 338.371 109.754 345.175C105.358 349.342 100.375 352.475 94.2583 353.509C83.4792 355.325 74.3417 348.134 73.5917 337.192C73.2333 331.975 74.6292 327.071 76.2833 322.192C78.4117 316.054 81.5369 310.309 85.5333 305.188C87.6167 302.454 89.8708 299.734 92.4583 297.484C101.542 289.596 111.267 282.667 122.758 278.604C123.448 278.43 124.109 278.158 124.721 277.796C125.404 277.288 126.217 276.659 126.467 275.909C129.338 267.392 132.117 258.825 134.908 250.304C134.935 250.13 134.931 249.952 134.896 249.779ZM120.042 296.863C119.489 297.034 118.945 297.233 118.413 297.459C110 301.538 102.783 307.084 97.025 314.463C93.425 319.075 90.2375 323.946 88.6 329.625C88.1022 331.36 87.8814 333.163 87.9458 334.967C88.0583 337.796 90.4458 339.342 93.1542 338.467C94.2495 338.078 95.2857 337.54 96.2333 336.867C99.2167 334.85 101.583 332.184 103.767 329.367C108.767 322.884 112.667 315.725 115.971 308.263C117.583 304.617 118.829 300.813 120.242 297.075L120.462 296.842L120.042 296.863ZM253.5 197.467C253.263 196.121 253.083 193.838 252.446 191.696C251.296 187.875 248.667 186.979 245.5 189.421C243.632 190.806 242.047 192.537 240.833 194.521C239.081 197.606 237.627 200.851 236.492 204.213C233.6 212.725 231.733 221.517 229.921 230.313C229.688 231.442 229.921 232.246 230.946 232.717C231.794 233.173 232.708 233.494 233.654 233.671C235.365 233.902 237.107 233.693 238.715 233.063C240.323 232.433 241.743 231.403 242.842 230.071C244.5 228.173 245.873 226.044 246.917 223.75C248.439 220.19 249.77 216.552 250.904 212.85C252.412 208.159 253.175 203.304 253.5 197.467ZM201.038 198.534C201.133 194.659 199.038 192.963 195.996 193.738C195.189 193.965 194.403 194.26 193.646 194.621C189.225 196.609 186.038 199.934 183.646 204.046C180.169 209.983 178.036 216.609 177.396 223.459C177.079 226.759 177.25 230.063 178.508 233.209C178.781 233.933 179.136 234.624 179.567 235.267C181.717 238.329 185.054 238.6 187.642 235.896C189.971 233.463 191.392 230.45 192.446 227.325C194.913 219.913 197.221 212.446 199.504 204.975C200.221 202.634 200.65 200.204 201.038 198.534Z" fill="#FDFCFD"/>
<path d="M213.212 46.2251C234.829 47.5376 251.908 57.4751 261.267 78.5293C270.625 99.5834 264.288 124.496 246.471 139.213C235.167 148.546 222.133 152.654 207.554 151.908C203.148 151.727 198.793 150.884 194.637 149.408C193.742 149.035 192.766 148.894 191.801 148.997C190.836 149.101 189.913 149.446 189.117 150C186.521 151.7 183.942 153.433 181.354 155.15C179.733 156.221 178.117 157.296 176.483 158.346C175.935 158.691 175.363 158.996 174.771 159.258C172.063 160.463 170.8 159.754 170.696 156.829C170.644 155.082 170.731 153.333 170.958 151.6C171.396 148.067 171.937 144.55 172.487 141.033C172.95 138.05 172.271 135.642 170.196 133.217C161.208 122.725 157.125 110.467 157.796 96.6668C158.308 86.1251 162.029 76.7251 168.104 68.2376C169.888 65.7376 172.104 63.5126 174.325 61.3751C183.129 52.8959 193.779 48.2876 205.817 46.7334C207.917 46.4418 210.079 46.4251 213.212 46.2251ZM200.712 125.625C202.829 125.15 205.637 124.842 208.212 123.879C210.761 122.938 212.893 121.124 214.23 118.759C215.566 116.394 216.021 113.631 215.512 110.963C214.946 107.863 213.25 105.521 210.7 103.729C207.221 101.279 203.25 99.8876 199.342 98.3126C197.321 97.4793 195.238 96.6126 193.508 95.3209C189.933 92.6501 190.592 88.1126 194.704 86.3209C198.121 84.8251 201.421 85.3334 204.546 87.1959C206.508 88.3626 207.667 90.0668 207.713 92.4293C207.73 92.9456 207.811 93.4578 207.954 93.9543C208.454 95.7126 209.904 96.7751 211.521 96.6126C212.373 96.5457 213.169 96.1613 213.75 95.5354C214.332 94.9096 214.658 94.088 214.662 93.2334C214.758 88.5543 213.104 84.6668 208.896 82.3334C203.183 79.1709 197.171 78.7918 191.125 81.3126C187.558 82.7959 185.204 85.4543 184.721 89.4459C184.167 93.7793 185.417 97.4584 189.167 99.8918C191.257 101.177 193.428 102.327 195.667 103.333C197.883 104.388 200.225 105.183 202.421 106.275C203.882 106.966 205.232 107.872 206.425 108.963C207.313 109.785 207.942 110.847 208.238 112.02C208.534 113.193 208.483 114.426 208.092 115.571C207.358 117.979 205.217 118.546 203.058 118.904C202.093 119.046 201.117 119.106 200.142 119.083C193.946 119.058 190.858 116.292 190.142 110.154C189.883 107.946 188.446 106.646 186.413 106.783C184.454 106.921 183.079 108.504 183.254 110.704C183.75 117.083 187.25 122.917 194.658 124.717C196.408 125.142 198.233 125.263 200.7 125.625H200.712ZM245.937 83.1251C245.904 81.3459 245.263 80.3584 244.046 79.7918C243.453 79.517 242.791 79.4315 242.148 79.5471C241.505 79.6627 240.914 79.9736 240.454 80.4376C239.984 80.9692 239.583 81.5587 239.262 82.1918C232.571 94.3695 225.892 106.556 219.225 118.75C218.892 119.306 218.604 119.887 218.363 120.488C218.134 121.167 218.139 121.902 218.375 122.578C218.611 123.255 219.066 123.833 219.667 124.222C220.268 124.611 220.982 124.789 221.696 124.728C222.409 124.667 223.082 124.37 223.608 123.883C224.057 123.419 224.434 122.891 224.729 122.317C231.574 109.836 238.406 97.3515 245.225 84.8626C245.503 84.2966 245.737 83.7102 245.925 83.1084L245.937 83.1251Z" fill="#01E0C5"/>
<path d="M267.721 222.213C267.963 217.942 267.775 214.446 268.446 211.121C269.39 206.535 270.671 202.026 272.279 197.629C274.996 190.108 278.596 182.971 283.737 176.796C286.273 173.77 289.182 171.079 292.396 168.788C295.825 166.35 300 165.992 304.183 166.508C306.704 166.817 309.071 167.5 311.1 169.121C313.495 171.015 315.047 173.777 315.417 176.808C315.946 180.3 315.342 183.625 314.233 186.879C309.742 200.058 300.771 208.375 287.179 211.621C287.002 211.7 286.814 211.747 286.621 211.763C284.021 211.392 283.408 213.163 282.829 215.121C281.971 218.038 281.579 220.954 282.313 223.929C283.104 227.175 285.646 228.892 288.979 228.383C292.758 227.804 295.925 225.883 298.763 223.5C301.077 221.532 303.251 219.406 305.271 217.138C308.279 213.804 310.033 213.992 311.875 218.142C312.004 218.438 312.117 218.742 312.258 219.033C314.146 222.954 313.542 226.171 310.279 229.313C305.033 234.367 299.713 239.233 292.829 241.921C290.329 242.896 287.663 243.754 285.008 244.004C277.646 244.729 271.929 240.846 269.458 233.796C268.955 232.464 268.595 231.083 268.383 229.675C268.05 226.929 267.888 224.167 267.721 222.213ZM286.542 198.95L286.913 199.454C288.642 198.808 290.45 198.317 292.083 197.483C296.813 195.067 300.725 191.783 302.625 186.6C303.208 185.004 303.575 183.363 303.083 181.663C302.592 179.963 301.242 178.983 299.55 179.496C298.251 179.863 297.06 180.536 296.075 181.458C291.25 186.379 288.538 192.5 286.542 198.95Z" fill="#FDFCFD"/>
</g>
<g clip-path="url(#clip1_111_177)">
<path d="M700 7.25355e-05C668.044 0.00158787 636.553 7.66013 608.165 22.3343C579.777 37.0085 555.319 58.2711 536.838 84.3414C518.357 110.412 506.392 140.531 501.944 172.176C497.497 203.821 500.697 236.072 511.276 266.226C515.833 292.308 516.459 303.902 513.082 321.719C510.721 334.494 503.294 342.83 504.534 354.779C505.715 365.641 506.447 371.864 516.176 382.384C527.652 394.014 538.279 393.305 541.679 393.825C553.486 395.643 562.247 388.937 575.081 387.331C595.271 384.804 609.924 383.423 642.972 391.688L643.35 391.759C670.865 399.912 699.812 402.048 728.226 398.022C756.64 393.997 783.855 383.903 808.022 368.428C832.19 352.952 852.744 332.457 868.288 308.334C883.833 284.211 894.004 257.026 898.111 228.623C902.219 200.221 900.165 171.268 892.091 143.729C884.017 116.191 870.111 90.7126 851.317 69.0247C832.524 47.3369 809.283 29.9474 783.174 18.0374C757.064 6.12733 728.698 -0.024367 700 7.25355e-05Z" fill="url(#paint1_linear_111_177)"/>
<path d="M727.758 148.887C735.231 148.887 741.289 142.83 741.289 135.357C741.289 127.884 735.231 121.826 727.758 121.826C720.286 121.826 714.228 127.884 714.228 135.357C714.228 142.83 720.286 148.887 727.758 148.887Z" fill="#FD71C8"/>
<path d="M612.285 151.78C605.304 151.692 598.396 153.211 592.095 156.219C584.68 160.222 583.606 156.833 582.897 155.912C582.189 154.991 582.342 153.881 578.694 153.905H565.919C565.919 153.905 557.252 153.409 557.654 159.171C557.654 159.171 558.421 177.779 558.421 189.444V281.445C558.421 288.529 563.569 294.917 570.63 295.543C572.488 295.711 574.36 295.492 576.128 294.898C577.896 294.304 579.522 293.349 580.901 292.093C582.28 290.837 583.383 289.308 584.139 287.603C584.895 285.898 585.289 284.054 585.294 282.189V260.098C585.288 259.335 585.471 258.582 585.829 257.908C586.186 257.233 586.706 256.659 587.341 256.236C587.976 255.813 588.707 255.554 589.467 255.485C590.227 255.415 590.992 255.535 591.694 255.836C597.267 258.313 603.306 259.569 609.404 259.519C632.275 259.519 656.904 242.234 656.904 204.298C656.892 173.871 638.143 151.78 612.285 151.78ZM606.5 236.141C601.792 236.156 597.214 234.598 593.492 231.714C589.77 228.831 587.118 224.788 585.955 220.225C585.556 218.306 585.335 216.353 585.294 214.393V198.359C585.397 196.432 585.734 194.525 586.298 192.68C588.919 182.525 597.456 175.429 607.078 175.429C622.782 175.429 629.819 190.342 629.819 205.112C629.878 224.5 621.093 236.141 606.5 236.141ZM810.432 151.815C803.991 151.771 797.627 153.213 791.835 156.03C789.474 157.211 783.842 156.869 782.39 156.16C780.937 155.452 780.028 153.941 778.257 153.941H763.156C762.461 153.938 761.774 154.08 761.137 154.357C760.5 154.634 759.927 155.04 759.454 155.549C758.982 156.058 758.62 156.659 758.391 157.315C758.163 157.971 758.072 158.667 758.126 159.36C758.657 166.444 758.882 173.906 758.882 184.261V243.981C759 248.81 759.472 249.035 759.472 249.035C760.676 251.704 762.673 253.939 765.191 255.434C767.709 256.93 770.626 257.614 773.546 257.394C780.63 256.851 785.955 250.416 785.955 243.226V196.198C785.909 194.104 786.196 192.015 786.806 190.011L786.888 189.763C788.99 182.891 795.354 175.961 804.835 175.961C815.827 175.961 821.365 183.553 821.365 198.512V243.946C821.766 255.753 829.972 257.807 836.029 257.359C843.173 256.816 848.438 250.381 848.438 243.19V196.552C848.474 163.516 827.977 151.78 810.432 151.78V151.815ZM727.369 153.941C721.737 153.941 713.732 157.329 713.732 165.039V243.981C713.708 255.033 721.737 257.394 727.369 257.394C729.139 257.4 730.893 257.057 732.53 256.384C734.167 255.711 735.655 254.721 736.909 253.472C738.162 252.223 739.157 250.738 739.836 249.103C740.515 247.468 740.864 245.716 740.864 243.946V167.342C740.863 165.573 740.512 163.821 739.833 162.188C739.153 160.554 738.158 159.071 736.904 157.823C735.651 156.575 734.163 155.586 732.527 154.914C730.891 154.242 729.138 153.899 727.369 153.905V153.941ZM681.699 110.29C678.347 110.27 675.108 111.503 672.616 113.745C670.124 115.988 668.559 119.08 668.227 122.416V122.664V245.02V245.28C668.606 248.715 670.282 251.876 672.912 254.118C675.542 256.359 678.928 257.513 682.38 257.342C685.832 257.172 689.088 255.691 691.485 253.202C693.882 250.712 695.238 247.401 695.277 243.946V123.738C695.255 120.156 693.814 116.728 691.268 114.207C688.723 111.686 685.282 110.277 681.699 110.29Z" fill="white"/>
</g>
<path fill-rule="evenodd" clip-rule="evenodd" d="M1318.71 348.154C1352.3 380.426 1397.4 400 1446.46 400C1551.82 400 1637.1 310.387 1637.1 200.17C1637.1 89.6167 1551.82 0 1446.46 0C1397.4 0 1352.3 19.5704 1318.71 51.8457C1280.19 88.5822 1255.82 141.458 1255.82 200.17C1255.83 258.881 1280.19 311.761 1318.71 348.154Z" fill="#E9B040"/>
<path fill-rule="evenodd" clip-rule="evenodd" d="M1611.75 311.414C1611.75 307.979 1614.39 305.235 1617.68 305.235C1621.3 305.235 1623.93 307.983 1623.93 311.414C1623.93 315.196 1621.29 317.94 1617.68 317.94C1614.39 317.94 1611.75 315.196 1611.75 311.414ZM1617.68 316.57C1620.31 316.57 1622.61 314.162 1622.61 311.418C1622.61 308.674 1620.31 306.613 1617.68 306.613C1615.37 306.613 1613.07 308.674 1613.07 311.418C1613.07 314.162 1615.37 316.57 1617.68 316.57ZM1617.02 314.509H1615.7V308.67H1618C1618.34 308.67 1619 308.67 1619.32 309.018C1619.98 309.357 1619.98 309.705 1619.98 310.392C1619.98 311.079 1619.66 311.766 1619 311.766L1620.31 314.513H1618.66L1618 312.105H1617.02V314.509V311.075H1618.34C1618.66 311.075 1618.66 310.727 1618.66 310.388C1618.66 310.04 1618.66 310.04 1618.34 309.701H1617.02V314.509Z" fill="#E9B040"/>
<path fill-rule="evenodd" clip-rule="evenodd" d="M1380.28 178.886C1379.63 171.677 1378.31 164.811 1376.99 157.598H1260.44C1261.75 150.389 1263.73 143.523 1265.7 136.654H1371.4C1369.1 129.426 1366.46 122.321 1363.49 115.366H1273.94C1277.23 108.093 1280.86 100.989 1284.8 94.0779H1352.3C1347.96 86.7451 1343.12 79.7458 1337.82 73.1336H1299.29C1305.25 65.5444 1311.74 58.4287 1318.72 51.8457C1284.81 19.9139 1240.02 0 1190.64 0C1085.61 0 1000 89.6167 1000 200.17C1000 310.387 1085.61 400 1190.64 400C1240.02 400 1284.8 380.426 1318.72 348.154C1325.58 341.686 1331.97 334.683 1337.82 327.206H1299.29C1294.02 320.34 1289.41 313.475 1284.8 305.918H1352.3C1356.55 299.129 1360.29 292.012 1363.5 284.63H1273.94C1270.97 277.765 1268.01 270.899 1265.7 263.682H1371.4C1373.7 256.816 1375.35 249.611 1376.99 242.394C1378.3 235.528 1379.62 228.323 1380.28 221.106C1380.95 214.145 1381.28 207.153 1381.27 200.158C1381.27 192.961 1380.94 185.752 1380.28 178.886Z" fill="#CC2131"/>
<path fill-rule="evenodd" clip-rule="evenodd" d="M1611.75 246.524C1611.75 242.75 1614.39 240.006 1617.68 240.006C1621.3 240.006 1623.93 242.754 1623.93 246.524C1623.93 249.959 1621.29 253.05 1617.68 253.05C1614.39 253.05 1611.75 249.955 1611.75 246.524ZM1617.68 251.329C1620.31 251.329 1622.61 249.268 1622.61 246.524C1622.61 243.78 1620.31 241.719 1617.68 241.719C1615.37 241.719 1613.07 243.78 1613.07 246.524C1613.07 249.268 1615.37 251.329 1617.68 251.329ZM1617.02 249.268H1615.7V243.776H1619.32C1619.98 244.124 1619.98 244.811 1619.98 245.498C1619.98 245.837 1619.66 246.524 1619 246.871L1620.31 249.272H1618.66L1618 247.211H1617.02V249.268V246.18H1617.68C1618 246.18 1618.34 246.18 1618.34 245.833C1618.66 245.833 1618.66 245.494 1618.66 245.146C1618.66 245.146 1618.66 244.807 1618.34 244.807C1618.34 244.459 1618 244.807 1617.68 244.807H1617.02V249.268Z" fill="white"/>
<path fill-rule="evenodd" clip-rule="evenodd" d="M1253.85 257.855C1247.6 259.568 1242.99 260.603 1238.38 260.603C1228.5 260.603 1222.57 254.077 1222.57 242.402C1222.57 240.002 1222.9 237.598 1223.23 234.85L1224.55 226.958L1225.54 220.431L1234.43 164.125H1254.18L1251.87 176.486H1264.39L1261.42 197.087H1248.91L1243.64 230.732C1243.31 232.453 1243.31 233.48 1243.31 234.167C1243.31 238.632 1245.29 240.345 1250.23 240.345C1252.53 240.345 1254.51 240.006 1256.48 239.658L1253.85 257.855ZM1317.73 257.168C1310.49 259.229 1303.9 260.255 1296.66 260.255C1274.27 260.255 1261.42 247.894 1261.42 223.523C1261.42 195.022 1276.57 174.421 1297.64 174.421C1314.43 174.421 1325.3 186.095 1325.3 204.288C1325.3 210.475 1324.64 216.31 1323 224.549H1281.84C1281.51 225.923 1281.51 226.61 1281.51 227.297C1281.51 236.911 1287.76 241.715 1299.62 241.715C1307.19 241.715 1313.77 240.002 1321.02 236.571L1317.73 257.168ZM1305.55 208.07V203.948C1305.55 197.083 1301.92 193.304 1295.67 193.304C1289.08 193.304 1284.47 198.453 1282.5 208.066L1305.55 208.07ZM1095.81 258.881H1075.39L1087.25 180.947L1060.58 258.881H1046.42L1044.78 181.291L1032.26 258.881H1012.18L1028.31 157.598H1058.27L1058.93 220.092L1079.02 157.598H1111.94L1095.81 258.881ZM1145.53 222.149C1143.55 221.801 1142.89 221.801 1141.58 221.801C1129.72 221.801 1123.8 226.606 1123.8 234.163C1123.8 239.315 1126.76 242.75 1131.37 242.75C1141.25 242.75 1145.2 234.163 1145.53 222.149ZM1161.99 258.881H1144.21L1144.54 250.302C1139.93 256.82 1133.68 260.255 1122.81 260.255C1112.93 260.255 1104.37 250.989 1104.37 237.598C1104.37 233.823 1105.03 230.392 1106.02 226.958C1109.31 214.249 1121.49 206.357 1140.26 206.009C1142.57 206.009 1146.18 206.009 1149.48 206.357C1150.13 203.609 1150.13 202.574 1150.13 200.861C1150.13 195.365 1145.86 193.648 1136.31 193.648C1130.38 193.648 1123.79 194.678 1119.19 196.396L1116.22 197.083L1114.91 197.422L1117.87 178.882C1127.42 175.791 1134.33 174.421 1141.91 174.421C1159.69 174.421 1169.23 183.004 1169.23 198.796C1169.23 202.918 1169.56 206.009 1168.25 214.936L1163.64 244.463L1162.98 249.615L1162.65 253.737L1162.32 256.485L1161.99 258.881ZM1417.16 177.169C1423.09 177.169 1428.36 178.886 1435.6 182.66L1439.22 160.686C1437.25 159.655 1436.59 159.655 1433.96 158.625L1425.73 156.22C1423.09 155.533 1419.8 155.19 1416.18 155.19C1405.97 155.19 1400.04 155.533 1393.79 159.312C1390.5 161.716 1386.21 164.807 1381.6 170.299L1378.97 169.612L1357.89 185.061L1358.89 176.478H1337.15L1324.32 258.877H1345.06L1352.63 214.592C1352.63 214.592 1355.6 208.406 1356.91 206.353C1360.87 201.2 1364.16 201.2 1368.43 201.2H1370.09C1369.39 206.433 1369.06 211.711 1369.09 216.993C1369.09 243.772 1383.58 260.599 1405.97 260.599C1411.57 260.599 1416.51 259.912 1424.08 257.851L1427.71 234.506C1421.12 238.28 1415.2 239.998 1410.26 239.998C1398.08 239.998 1390.83 230.384 1390.83 215.279C1390.82 192.961 1401.69 177.169 1417.16 177.169ZM1591.99 157.598L1587.39 186.439C1582.45 178.543 1576.52 174.764 1568.62 174.764C1557.75 174.764 1547.54 181.287 1541.28 193.648V193.308L1528.12 185.065L1529.43 176.482H1507.37L1494.86 258.881H1515.27L1522.19 214.596C1522.19 214.596 1527.46 208.41 1528.78 206.357C1532.07 202.235 1535.36 201.544 1537.99 201.205C1535.69 208.07 1534.38 216.31 1534.38 225.584C1534.38 246.185 1544.58 259.916 1559.72 259.916C1567.3 259.916 1573.22 257.168 1578.82 250.642L1577.83 258.881H1597.26L1613.07 157.598H1591.99ZM1566.64 239.315C1559.73 239.315 1556.11 233.823 1556.11 223.175C1556.11 207.036 1562.69 195.365 1572.24 195.365C1579.48 195.365 1583.1 201.205 1583.1 211.505C1583.1 227.984 1576.52 239.315 1566.64 239.315ZM1471.49 222.149C1469.52 221.801 1468.86 221.801 1467.54 221.801C1455.68 221.801 1449.75 226.606 1449.75 234.163C1449.75 239.315 1452.72 242.75 1457.33 242.75C1467.21 242.75 1471.16 234.163 1471.49 222.149ZM1487.96 258.881H1469.84L1470.5 250.302C1465.89 256.82 1459.63 260.255 1448.77 260.255C1438.56 260.255 1429.68 251.329 1429.68 237.598C1429.68 218.031 1443.83 206.013 1466.22 206.013C1468.53 206.013 1472.14 206.013 1475.11 206.361C1475.77 203.613 1476.1 202.578 1476.1 200.865C1476.1 195.369 1471.82 193.652 1461.95 193.652C1456.35 193.652 1449.43 194.682 1444.82 196.4L1442.19 197.087L1440.87 197.426L1443.83 178.886C1453.39 175.795 1460.3 174.425 1467.87 174.425C1485.65 174.425 1494.87 183.008 1494.87 198.8C1494.87 202.922 1495.53 206.013 1493.88 214.94L1489.6 244.467L1488.94 249.619L1488.28 253.741L1487.96 256.489V258.881H1487.96ZM1205.12 193.991C1209.07 193.991 1214.67 194.335 1220.6 195.365L1223.56 176.138C1217.63 175.451 1209.73 174.421 1205.12 174.421C1182.08 174.421 1174.5 187.469 1174.5 202.574C1174.5 212.535 1178.78 219.74 1189.98 225.232C1198.21 229.354 1199.53 230.037 1199.53 233.819C1199.53 238.963 1195.25 242.059 1187.34 242.059C1181.09 242.059 1175.16 241.024 1168.58 238.624L1166.27 257.503L1166.6 257.851L1170.55 258.538C1171.87 258.877 1173.51 259.225 1175.82 259.564C1180.75 259.912 1185.04 260.251 1187.67 260.251C1210.72 260.251 1220.27 250.985 1220.27 232.785C1220.27 221.458 1215 214.592 1204.79 209.788C1195.9 205.662 1194.91 204.983 1194.91 201.2C1194.91 197.426 1198.87 193.991 1205.12 193.991Z" fill="#1B3771"/>
<path fill-rule="evenodd" clip-rule="evenodd" d="M1444.82 154.163L1441.19 176.138C1433.95 172.36 1428.68 170.646 1422.76 170.646C1407.28 170.646 1396.42 186.439 1396.42 208.757C1396.42 224.21 1403.66 233.476 1415.85 233.476C1420.78 233.476 1426.71 231.762 1433.29 228.331L1429.67 251.329C1422.1 253.389 1417.16 254.424 1411.56 254.424C1389.17 254.424 1375.34 237.597 1375.34 210.478C1375.34 174.425 1394.44 149.015 1421.77 149.015C1425.39 149.015 1428.68 149.359 1431.31 150.046L1439.55 152.106C1442.19 153.137 1442.84 153.48 1444.82 154.163ZM1378.31 169.273H1376.33C1369.42 169.273 1365.47 172.707 1359.21 182.66L1361.19 169.955H1342.42L1329.58 252.359H1350.33C1357.9 201.887 1359.87 193.304 1369.75 193.304H1371.07C1373.05 183.347 1375.68 176.134 1378.97 169.612L1378.31 169.273ZM1259.12 251.329C1253.53 253.389 1248.91 254.076 1244.31 254.076C1233.77 254.076 1227.84 247.898 1227.84 235.884C1227.84 233.823 1228.17 231.079 1228.5 228.671L1229.82 220.431L1230.81 213.913L1239.7 157.598H1260.11L1257.8 169.96H1268.34L1265.71 190.217H1255.17L1249.57 224.553C1249.24 225.927 1249.24 226.962 1249.24 227.988C1249.24 232.11 1251.22 233.827 1256.16 233.827C1258.46 233.827 1260.44 233.827 1261.75 233.14L1259.12 251.329ZM1179.77 196.052C1179.77 206.357 1184.38 213.562 1195.24 219.057C1203.8 223.179 1205.12 224.549 1205.12 227.984C1205.12 233.136 1201.5 235.536 1193.27 235.536C1187.01 235.536 1181.41 234.51 1174.83 232.449L1171.87 251.329L1172.85 251.676L1176.48 252.363C1177.79 252.703 1179.44 253.05 1182.07 253.05C1186.68 253.737 1190.63 253.737 1193.27 253.737C1215 253.737 1225.21 245.15 1225.21 226.27C1225.21 214.936 1220.93 208.409 1210.72 203.265C1201.83 199.143 1200.84 198.117 1200.84 194.339C1200.84 189.877 1204.47 187.817 1211.05 187.817C1215 187.817 1220.6 188.16 1225.87 188.847L1228.83 169.964C1223.56 168.933 1215.33 168.246 1210.72 168.246C1187.67 168.242 1179.44 180.947 1179.77 196.052ZM1602.53 252.363H1583.1L1584.1 244.463C1578.5 250.642 1572.57 253.389 1564.99 253.389C1549.85 253.389 1539.97 240.006 1539.97 219.405C1539.97 191.934 1555.45 168.586 1573.55 168.586C1581.79 168.586 1587.71 172.364 1593.32 179.916L1597.92 151.076H1618.34L1602.53 252.363ZM1572.24 233.136C1581.79 233.136 1588.37 221.462 1588.37 205.322C1588.37 194.678 1584.75 189.182 1577.51 189.182C1568.29 189.182 1561.38 200.513 1561.38 216.653C1561.38 227.644 1565 233.136 1572.24 233.136ZM1322.34 250.642C1315.09 253.05 1308.51 254.076 1300.93 254.076C1277.88 254.076 1266.03 241.376 1266.03 216.996C1266.03 188.843 1281.18 167.899 1301.92 167.899C1319.04 167.899 1329.9 179.573 1329.9 197.769C1329.9 203.952 1329.25 209.791 1327.27 218.37H1286.45C1286.12 219.405 1286.12 220.092 1286.12 220.779C1286.12 230.392 1292.38 235.197 1304.23 235.197C1311.8 235.197 1318.38 233.823 1325.63 230.045L1322.34 250.642ZM1310.81 201.544V197.426C1310.81 190.56 1307.19 186.782 1300.93 186.782C1294.35 186.782 1289.74 191.934 1287.76 201.544H1310.81ZM1101.08 252.363H1080.66L1092.52 174.421L1065.85 252.363H1051.69L1050.04 175.108L1037.53 252.363H1018.44L1034.57 151.076H1064.2L1065.19 213.909L1084.94 151.076H1117.21L1101.08 252.363ZM1152.11 215.623C1150.14 215.623 1149.15 215.283 1147.5 215.283C1135.98 215.283 1130.05 219.744 1130.05 227.984C1130.05 233.136 1132.69 236.223 1137.3 236.223C1145.86 236.223 1151.78 227.984 1152.11 215.623ZM1167.26 252.363H1150.13L1150.46 243.776C1145.19 250.642 1138.28 253.737 1128.73 253.737C1117.54 253.737 1109.96 244.81 1109.96 231.419C1109.96 211.165 1123.13 199.491 1146.18 199.491C1148.49 199.491 1151.45 199.834 1154.74 200.174C1155.4 197.43 1155.4 196.4 1155.4 195.026C1155.4 189.534 1151.78 187.473 1142.23 187.473C1136.3 187.473 1129.72 188.16 1125.11 189.534L1122.14 190.564L1120.17 190.908L1123.13 172.368C1133.34 169.277 1140.25 168.246 1147.83 168.246C1165.61 168.246 1175.16 176.486 1175.16 192.278C1175.16 196.4 1174.83 199.491 1173.51 208.761L1168.9 237.949L1168.24 243.093L1167.91 247.215L1167.58 250.31L1167.26 252.363ZM1478.08 215.623C1475.77 215.623 1474.78 215.283 1473.47 215.283C1461.62 215.283 1455.68 219.744 1455.68 227.984C1455.68 233.136 1458.65 236.223 1463.26 236.223C1471.49 236.223 1477.74 227.984 1478.08 215.623ZM1493.22 252.363H1476.1L1476.43 243.776C1471.16 250.642 1464.25 253.737 1454.7 253.737C1443.5 253.737 1435.93 244.81 1435.93 231.419C1435.93 211.165 1449.1 199.491 1472.14 199.491C1474.45 199.491 1477.42 199.834 1480.38 200.174C1481.04 197.43 1481.37 196.4 1481.37 195.026C1481.37 189.534 1477.74 187.473 1468.2 187.473C1462.27 187.473 1455.36 188.16 1450.75 189.534L1448.11 190.564L1446.14 190.908L1449.1 172.368C1459.31 169.277 1466.22 168.246 1473.8 168.246C1491.57 168.246 1500.79 176.486 1500.79 192.278C1500.79 196.4 1500.79 199.491 1499.15 208.761L1494.87 237.949L1494.21 243.093L1493.55 247.215L1493.23 250.31L1493.22 252.363ZM1548.53 169.273H1546.56C1539.65 169.273 1535.7 172.707 1529.44 182.66L1531.41 169.955H1512.64L1500.13 252.359H1520.54C1528.12 201.887 1530.1 193.304 1539.97 193.304H1541.29C1543.27 183.347 1545.9 176.134 1549.19 169.612L1548.53 169.273Z" fill="white"/>
<path d="M2321.22 400H1737.1V0H2331.31V400H2321.22Z" fill="#1D5B99"/>
<path fill-rule="evenodd" clip-rule="evenodd" d="M2321.22 389.904H1747.19V10.0957H2321.22V389.904Z" fill="white"/>
<path fill-rule="evenodd" clip-rule="evenodd" d="M1954.66 261.681L1991.94 138.762H2025.2L1987.92 261.681H1954.66ZM1939.79 138.796L1909.87 190.905C1902.25 204.554 1897.8 211.448 1895.66 220.066H1895.2C1895.73 209.139 1894.2 195.713 1894.06 188.126L1890.76 138.796H1834.77L1834.19 142.103C1848.58 142.103 1857.11 149.328 1859.45 164.11L1870.37 261.681H1904.83L1974.51 138.796H1939.79ZM2198.46 261.681L2197.54 243.403L2156.01 243.369L2147.51 261.681H2111.4L2176.89 138.995H2221.21L2232.29 261.681H2198.46ZM2194.65 189.174C2194.27 180.089 2193.97 167.761 2194.58 160.296H2194.09C2192.07 166.399 2183.37 184.724 2179.55 193.735L2167.17 220.675H2196.34L2194.65 189.174ZM2060.12 265.173C2036.64 265.173 2021.05 257.725 2009.93 251.081L2025.77 226.886C2035.76 232.472 2043.6 238.919 2061.65 238.919C2067.45 238.919 2073.04 237.415 2076.22 231.914C2080.84 223.924 2075.15 219.617 2062.16 212.263L2055.75 208.091C2036.48 194.932 2028.15 182.428 2037.22 160.607C2043.02 146.65 2058.32 136.067 2083.57 136.067C2100.98 136.067 2117.31 143.6 2126.81 150.958L2108.6 172.319C2099.32 164.813 2091.62 161.016 2082.82 161.016C2075.8 161.016 2070.47 163.724 2068.62 167.376C2065.16 174.24 2069.75 178.919 2079.87 185.201L2087.5 190.056C2110.89 204.808 2116.45 220.273 2110.6 234.727C2100.51 259.622 2080.77 265.173 2060.12 265.173ZM2242.2 155.421H2240.76V146.65H2244.08C2246.2 146.65 2247.28 147.391 2247.28 149.172C2247.28 150.761 2246.31 151.421 2244.99 151.566L2247.45 155.421H2245.82L2243.56 151.674H2242.2V155.421ZM2243.81 150.44C2244.89 150.44 2245.84 150.335 2245.84 149.064C2245.84 148.006 2244.8 147.877 2243.94 147.877H2242.2V150.44H2243.81ZM2243.77 158.812C2239.21 158.812 2235.97 155.4 2235.97 150.887C2235.97 146.123 2239.56 142.965 2243.77 142.965C2247.91 142.965 2251.52 146.123 2251.52 150.887C2251.52 155.654 2247.91 158.812 2243.77 158.812ZM2243.77 144.341C2240.33 144.341 2237.66 147.032 2237.66 150.887C2237.66 154.487 2239.99 157.432 2243.77 157.432C2247.15 157.432 2249.82 154.761 2249.82 150.887C2249.82 147.032 2247.15 144.341 2243.77 144.341Z" fill="#1D5B99"/>
<path fill-rule="evenodd" clip-rule="evenodd" d="M2307.08 299.856H1762.34V372.742H2307.08V299.856Z" fill="#E7A83A"/>
<path fill-rule="evenodd" clip-rule="evenodd" d="M2306.07 28.269H1761.33V101.158H2306.07V28.269ZM2293.62 367.559H2292.18V358.788H2295.51C2297.63 358.788 2298.7 359.529 2298.7 361.31C2298.7 362.896 2297.73 363.555 2296.42 363.701L2298.88 367.559H2297.25L2294.98 363.809H2293.62V367.559ZM2295.24 362.578C2296.32 362.578 2297.27 362.474 2297.27 361.199C2297.27 360.144 2296.23 360.016 2295.37 360.016H2293.63V362.578H2295.24ZM2295.2 370.947C2290.64 370.947 2287.4 367.538 2287.4 363.021C2287.4 358.261 2291 355.103 2295.2 355.103C2299.35 355.103 2302.95 358.261 2302.95 363.021C2302.95 367.789 2299.35 370.947 2295.2 370.947ZM2295.2 356.476C2291.76 356.476 2289.09 359.17 2289.09 363.021C2289.09 366.625 2291.42 369.567 2295.2 369.567C2298.58 369.567 2301.25 366.899 2301.25 363.021C2301.25 359.17 2298.58 356.476 2295.2 356.476Z" fill="#1D5B99"/>
<defs>
<linearGradient id="paint0_linear_111_177" x1="26.4167" y1="373.583" x2="373.583" y2="26.4167" gradientUnits="userSpaceOnUse">
<stop stop-color="#6F0384"/>
<stop offset="1" stop-color="#A221AF"/>
</linearGradient>
<linearGradient id="paint1_linear_111_177" x1="516.872" y1="383.128" x2="841.425" y2="58.5749" gradientUnits="userSpaceOnUse">
<stop stop-color="#2982F8"/>
<stop offset="0.33" stop-color="#10BCDF"/>
<stop offset="0.6" stop-color="#05D7D3"/>
<stop offset="1" stop-color="#00E2CE"/>
</linearGradient>
<clipPath id="clip0_111_177">
<rect width="400" height="400" fill="white"/>
</clipPath>
<clipPath id="clip1_111_177">
<rect width="400" height="400" fill="white" transform="translate(500)"/>
</clipPath>
</defs>
</svg>
